<?xml version="1.0" encoding="utf-8"?>
<!-- Generator: Adobe Illustrator 16.0.3, SVG Export Plug-In . SVG Version: 6.00 Build 0)  -->
<!DOCTYPE svg PUBLIC "-//W3C//DTD SVG 1.1//EN" "http://www.w3.org/Graphics/SVG/1.1/DTD/svg11.dtd">
<svg version="1.1" id="Layer_1" xmlns="http://www.w3.org/2000/svg" xmlns:xlink="http://www.w3.org/1999/xlink" x="0px" y="0px"
	 width="234.286px" height="35.714px" viewBox="0 0 234.286 35.714" enable-background="new 0 0 234.286 35.714"
	 xml:space="preserve">
<path fill="#D92E27" d="M220.421,23.773c-0.28,0.101-0.796-0.313-0.988-0.476c-0.433-0.365-0.888-0.494-1.351-0.588
	c-3.119-0.645-6.038-1.842-9.192-3.151c-1.671-0.038-3.01-0.311-4.467-0.911c-1.394-0.475-2.884-0.378-5.123-0.895
	c-0.402-0.096-2.804-0.333-3.207-0.429c-0.473-0.11-1.545-0.083-2.021-0.192c-2.908-0.661-5.041-0.837-8.225-0.755
	c0.313,0.334-1.526,0.29-1.875,0.397l-0.057-0.271l-0.642,0.221c-0.493,0.013-0.507-0.298-0.885-0.448
	c-2.59-0.273-2.725,0.389-5.224-0.023l-2.928-0.478c-2.522-0.322-5.58-0.823-8.279-1.148c-6.75-1.336-8.003-0.582-14.702-1.261
	c-6.811-0.194-13.528,0.26-20.511,0.327c-1.106,1.384-2.554,0.679-3.847,1.886l0.091-0.431c-1.091,0.604-1.347-0.146-2.702-0.713
	c-0.024,0.506-0.528,0.131-0.347,0.959c-0.486,0.695-0.832-1.191-1.521-0.828c-0.02-0.28,0.01,0.495-0.132,0.231
	c-1.778,0.973,0.345-0.459-1.881-1.289c-3.132,0.281-6.333,1.097-9.335,0.598c0.185-0.04,0.273,0.625-0.029,0.64
	c-0.296-1.347-1.015,0.369-1.545-0.163c0.039-0.281,0.291-0.367,0.429-0.489c-1.371-0.552-2.509,0.281-3.792-0.306
	c-0.76,0.361-1.604,0.038-2.326-0.076c-0.567-0.137-1.144-0.275-1.723-0.351c-0.074-0.028-0.144-0.06-0.194-0.11
	c-0.017,0.031-0.036,0.053-0.053,0.081c-0.613-0.058-1.228-0.034-1.839,0.169c-0.058,0.031-0.097,0.067-0.129,0.103
	c-0.498-0.153-0.997-0.239-1.434,0.17c-0.006,0-0.012-0.001-0.017-0.001l0.034-0.261c-0.471,0.019-1.035,0.028-1.655,0.032
	c-0.384-0.073-0.772-0.136-1.155-0.129c-0.031,0.051-0.074,0.092-0.116,0.133c-2.817-0.003-6.408-0.044-9.134,0.183
	c-0.036-0.015-0.081-0.026-0.113-0.043c0.008,0.021,0.006,0.032,0.013,0.053c-0.591,0.051-1.137,0.115-1.625,0.195l-3.085-0.055
	c-0.622,0.154-0.79,0.909-1.535,0.69c-0.462-0.957-1.556-0.037-2.285-0.396c0.029,0.13,0.022,0.254,0.001,0.373
	c-0.426-0.097-0.856-0.177-1.288-0.217l0.038-0.194c-0.563,0.18-1.187,0.235-1.846,0.242v0.119
	c-0.004,0.001-0.008,0.002-0.012,0.003c-0.392,0.212-0.08,0.561-0.396,0.708c-0.12-0.009-0.18-0.04-0.213-0.083
	c0.064,0.802-1.062,0.354-1.522,0.637c-0.349-0.077-0.335-0.572-0.181-0.826l-2.453-0.044c-0.019,0.063-0.02,0.135,0.01,0.228
	c-0.134-0.099-0.177-0.171-0.182-0.231l-0.478-0.009c-0.622,0.154-0.791,0.909-1.536,0.69c-0.461-0.957-1.555-0.038-2.284-0.396
	c0.184,0.823-0.749,1.49-1.477,1.127l0.227-1.165c-0.519,0.166-1.094,0.22-1.697,0.233c-1.942-0.048-4.132-0.378-6.026,0.632
	l-0.202-0.684c-2.808,0.794-5.567-0.056-8.271,1.261c-0.73-0.363-1.897-0.594-2.616-0.594c-0.983,0.588-1.334,0.521-2.002,1.46
	c-0.369,0.062-0.594-0.482-0.736-0.72c-1.237-0.173-2.427-1.124-3.415-0.032l-0.041-0.578c-0.981,0.595-2.398,1.311-3.513,0.666
	c-0.304,0.519-1.412,0.731-0.904,1.396c-0.436,0.129-0.289-0.975-0.731-0.353l0.413-0.843c-2.492-0.197-4.591,0.256-6.989,0.741
	c-0.714-0.985-2.291,0.135-3.666-0.387c-0.789,0.569-2.196-0.834-2.761,0.418c0,0,0.147-0.708-0.054-1.223
	c-0.342-0.871-1.995-1.436-3.928-0.892c-0.825-0.141-0.796,0.935-1.428,1.252l0.041,2.016c0,0-0.136,0.101-0.136,0.826
	c0,0.726,0.208,0.679,0.208,0.679l0.176,0.162l0.209,0.277c0.239-0.017,0.304,0.344,0.61,0.258c0.928,0.08,1.742,0.662,2.628,0.912
	c0.8-0.213,1.129,0.218,1.84-0.295c0.722-0.017-0.01,1.139,0.705,0.619c0.481,0.578,1.163-0.396,1.971-0.521
	c1.052,0.191,1.675,0.17,2.775-0.048c-0.365,0.071-0.452,0.772-0.137,1.114c0.5-0.691,1.39-1.094,2.319-0.918
	c-0.027-0.717-0.329-0.703-0.241-1.403c0.137-0.118,0.357-0.435,0.588-0.387c0.145,0.742,0.117,1.876,0.95,1.892
	c-0.768,0.762-2.002-0.271-1.611,0.875c-0.355,0.932-1.263,1.152-1.609,0.588c-0.721,1.002,0.58,0.109,0.458,1.082
	c0.663-0.088,0.965-0.602,1.998-0.766c0.006-0.496,0.501-0.17,0.97-0.577c0.908-1.048,0.313,0.321,0.544,0.364l-0.45,0.268
	c0.612,0.338,0.818-0.339,1.464-0.289c0.19,1.325-1.029,0.158-1.256,0.975l0.476,0.945c0.991,0.123,0.258-1.088,1.285-0.752
	l-0.119,0.484l0.635-0.309c0.006-0.496-0.137-1.242-0.686-1.136c0.347-1.285,0.504-0.187,1.37-0.442
	c0.273-0.733-0.368,0.069-0.392-0.651c-0.092-0.659,0.506-0.69,0.943-0.812c0.715-0.008,0.375,0.783,0.665,1.268
	c-0.135,0.115-0.684,0.223-0.629-0.195c-0.876,0.76,0.397,1.508-0.21,2.033c0.828,0.512,0.594-0.887,1.295-0.758
	c0.493-0.666,0.232-0.516,0.038-0.844c1.159-1.986,0.367,1.355,1.488,1.004c-0.245-1.263,1.084-1.021,0.253-2.403
	c0.271-0.229,0.61-0.522,0.893-0.39c-0.295,0.866,0.917-0.084,0.387,0.738l0.411,0.004l-0.613,1.03
	c0.458,0.586,1.215,1.166,1.458,1.574c0.591-0.384-0.187-0.826,0.498-1.042c-0.239,0.445,0.187,0.818,0.49,0.809
	c-0.608-0.332-0.014-1.217,0.373-1.431c0.604-0.022,1.087,0.789,0.999,0.989l-0.582,0.74c0.444-0.631,0.198,0.327,0.648,0.06
	c0.127-0.476,0.406-1.214,0.554-1.824c0.384-0.209,0.658,0.418,0.792,0.304l-0.609,0.522c0.802-0.197,0.175,1.315,0.999,0.981
	l0.213-0.668c0.162,0.103,0.243,0.407,0.087,0.656c0.127-0.477,0.593-0.38,0.797-0.554l0.057,0.44
	c0.339-0.291,0.773-1.272,1.191-0.406c-0.33-1.061-0.418-0.008-1.008-0.485c-0.367-0.788,0.583-0.739,0.714-0.858
	c-0.035,1.142,0.889,0.104,1.303,0.119c0.242,0.408,0.454,0.594,0.602,0.836l0.161-0.755c0.157,1.464,0.829-0.337,1.3,0.12
	c-0.24,0.45-0.205,1.033,0.125,1.242c-0.445-1.094,0.728-1.357,0.595-2.096c0.844,0.382-0.196,1.388,0.054,2.152
	c0.418-0.841,0.937,0.549,1.217-0.537c-0.611-0.338,0.094-0.695,0.222-1.179c0.767,0.091-0.128,0.483,0.415,0.875
	c0.321-0.153,0.741-0.991,0.245-1.305c0.448,0.233,0.953-0.81,1.454-0.136c0.204,0.681-0.939,0.309-0.648,0.797
	c1.065,0.07,0.534-1.683,1.527-1.907l0.401-0.705l0.437-0.13c0.609,1.199-1.296,1.961-0.716,2.929l0.474-0.401
	c-0.104,0.336-0.258,0.949-0.064,1.275c0.121-0.832,1.109-0.205,1.197-0.402c0.098-0.697-0.387,0.207-0.309-0.347
	c0.504-0.187,0.732-1.353,1.508-0.91c-0.427,0.487,0.162,0.958-0.016,1.357c0.379,0.29,0.12-0.832,0.663-0.441l-0.061,0.421
	c1.608,0.102,3.53,0.062,5.129-0.815v-0.431c0.169-0.125,0.335-0.256,0.49-0.41c0.319,0.709,0.967,0.771,1.977,1.264
	c-0.445-0.234-0.017-0.725,0.235-0.812l0.483,0.815c0.59,0.474,1.362-0.299,1.906-0.756l0.153,0.598
	c0.522,0.539,0.546-0.456,0.748-0.634l0.213,0.357c-0.085-0.006-0.089-0.002,0.008,0.015l0.121,0.203l0.025-0.187
	c0.01-0.006,0.013-0.011,0.023-0.016c-0.007-0.001-0.014-0.001-0.021-0.002l0.049-0.355c0.092-0.057,0.188-0.093,0.285-0.119
	c0.011-0.023,0.016-0.045,0.032-0.069c0.02,0.021,0.042,0.026,0.063,0.046c0.298-0.049,0.58,0.057,0.707,0.363
	c0.096,0.018,0.194,0.02,0.293,0.021c-0.02-0.039-0.035-0.078-0.078-0.122c0.047,0.05,0.11,0.089,0.171,0.128
	c0.712-0.013,1.46-0.332,2.148-0.058c-0.164-0.278-0.055-0.888,0.217-1.261c-0.024,0.058-0.048,0.149-0.074,0.336
	c0.038,0.572-0.001,0.852,0.444,1.085c-0.202,0.065-0.429,0.114-0.663,0.149c0.743-0.058,1.185-0.229,0.79-0.621
	c0.458-0.266,0.03-0.636,0.022-0.998c-0.263,0.395-0.38-0.031-0.473-0.013c0.121-0.143,0.267-0.245,0.438-0.251
	c0.653-0.802,0.262,1.121,0.852,1.602c0.295-0.373,0.848-0.475,1.082-0.426l-0.019,0.142c0.36-0.431,0.931-0.675,1.359-0.304
	l-0.067,0.056c0.349,0.073,0.758,0.579,1.126,0.51c0.063-0.292,0.236-0.401,0.436-0.465l0.026,0.045
	c0.59,0.474,1.363-0.299,1.907-0.756l0.153,0.598c0.522,0.538,0.545-0.457,0.748-0.634l0.341,0.575l0.077-0.56
	c0.526-0.322,1.224-0.184,1.153,0.733c0.206-0.174,0.41-0.349,0.148-0.613c0.524,0.536,1.961,0.538,2.907,0.229
	c-0.387-0.201-0.409-0.451-0.433-0.885c0.204,0.055,0.352,0.182,0.308,0.502c0.145-0.185,0.303-0.258,0.452-0.325
	c-0.02,0.085-0.076,0.165-0.2,0.237c1.258,1.252,7.021,0.25,8.603,0.5c0.32-0.149,0.223-0.309,0.378-0.567
	c1,0.985,2.227-0.052,3.305,0.379c-0.07-0.119-0.086-0.302-0.066-0.499c0.415,0.113,0.882,0.096,1.36,0.074
	c0.056,0.188,0.135,0.353,0.259,0.453c0.236-0.299,0.631-0.418,0.901-0.43c0.06,0.008,0.118,0.018,0.177,0.031l-0.015,0.113
	c0.029-0.034,0.061-0.065,0.093-0.098c0.188,0.047,0.372,0.115,0.546,0.217c-0.064-0.614,0.185-0.594,0.456-0.565
	c0.091,0.028,0.18,0.071,0.263,0.144l-0.066,0.056c0.349,0.073,0.758,0.58,1.126,0.51c0.049-0.228,0.169-0.34,0.313-0.411
	c0.012,0.016,0.027,0.02,0.038,0.037l-0.01-0.05c0.331-0.146,0.788-0.084,0.934-0.538c0.046,0.086-0.023,0.141,0.075,0.302
	l0.03-0.639l0.293,0.146v-0.99c0.142-0.022,0.279,0.074,0.418,0.387c0.497,0.313-0.158,0.765-0.364,0.935
	c0.691,1.137,1.802-0.936,2.358,0.314c0.054-0.419-0.155-1.107,0.432-1.487c0.478,0.444,1.417,0.999,1.329,1.188
	c0.388-0.207,0.491-0.545,0.918-0.168c-0.037,0.271-0.221,0.309-0.355,0.429c0.676,0.272,1.213-0.188,1.806-0.575
	c0.365,0.792,1.551,0.385,2.32,0.825c0.44-0.987,1.254,0.403,1.318-0.871c-0.019,0.134,0.075,0.302,0.124,0.376
	c0.29-0.363,0.53-1.174,0.899-1.232l-0.124,0.83c-0.094,1.056,1.043,0.219,1.144,0.744c-0.311-0.715,0.414,0.012,0.45-0.621
	l0.435-0.265c0.692-0.212,0.085-0.413,0.938-0.522c0.485-0.043,0.151,0.966-0.013,0.86c0.416,0.453,0.843,0.179,1.277-0.005
	c-0.052-0.047-0.092-0.109-0.1-0.218l0.574,0.092c-0.159,0.004-0.317,0.06-0.475,0.126c0.215,0.193,0.725-0.021,0.939,0.294
	l-0.124,0.651c0.295,0.033,1.128-0.694,1.108-0.975c1.156,0.578,3.089,0.149,3.881-0.193c-0.155,0.144-0.178,0.352-0.021,0.136
	c0.403-0.12,0.872-0.669,0.9-0.246c0.397-0.258,0.351,0.463,0.95,0.536c0.008,0.111,0.068-0.357,0.01-0.518
	c-0.024-0.021-0.05-0.026-0.073-0.049c0.035-0.019,0.057,0.006,0.073,0.049c1.002,0.887,2.341-0.622,3.537,0.088l2.288-0.709
	c-0.098,0.294-0.081,0.573-0.308,0.733c0.516,0.01,1.091-0.095,1.473-0.433c-0.019,0.014-0.045,0.021-0.08,0.016
	c-0.446-0.593,0.41-1.17,0.834-1l0.008,0.141c0.649,0.011,0.692-0.343,1.341-0.328c0.377,0.387-0.345,0.17-0.205,0.583
	c0.112,1.049,1.455,0.72,1.581,0.848c0.165-0.223,0.393-0.385,0.379-0.668c0.521-0.256,0.208,0.619,0.561,0.583l1.478-1.864
	c-0.074,0.276,0.415,0.906-0.029,1.244c1.062-0.088,1.719-1.277,2.402-1.899c0.309,0.186,1.356-0.177,1.711-0.202
	c0.144,0.555-0.297-0.051-0.396,0.378l0.5,0.673c-0.709,0.05,0.037,0.986-0.362,1.365c0.582-0.328,1.898,0.141,2.735,0.353
	c-0.521-1.224,1.163-0.511,1.186-1.576c1.002-0.142,0.445,0.886,0.807,1.14c1.053-0.368,2.013-0.011,2.953-0.074
	c0,0,0.006,0.147-0.049,0.217c0.878-0.274,2.249,0.131,3.171-0.778c-0.053,0.216,0.011,0.425-0.22,0.577
	c0.896,0.439,0.256-1.35,1.283-0.643l-0.282,0.511c0.698-0.471,1.253,0.545,2.063-0.216c0.007,0.288-0.166,0.371-0.282,0.514
	c0.706-0.183,1.479-0.01,2.114-0.682c0.066,0.346-0.048,0.635-0.336,0.855c0.656,0.458,0.809-0.884,1.408-0.492
	c0.18,0.056,0.483,0.526,0.368,0.539c0.344-0.445,1.292-0.36,1.646-0.518c0.062,0.349,0.305,0.478,0.664,0.874
	c3.432,0.224,4.63,0.877,8.119,0.22c0.475,1.113,1.292,0.033,1.59,0.801c0.782,0.254,0.743,0.187,1.802-0.025l0.03,0.136
	c0.46-0.157,0.653,0.452,1.154,0.212l0.007-0.238c0.562-0.549,1.009,1.283,1.386,0.138l0.328,0.685
	c0.595-0.99,0.758,0.402,1.451-0.408l-0.09,0.176c0.783,0.531,1.828-0.965,2.064-0.104c0.719-0.088,1.552-0.207,1.764-0.996
	c0.123,0.319-0.023,0.803-0.157,1.059c2.67-0.135,5.585,0.367,8.061-0.456c0.095,0.185-0.065,0.306-0.155,0.474
	c1.574-0.768,2.873,1.348,4.164-0.347l0.479-0.714c0.309,0.336,0.216,0.863,0.452,1.156c0.346-0.461,1.351,0.033,1.605-0.617
	c0.116,0.324-0.115,0.39-0.142,0.611c0.653,0.243,1.576-0.77,2.18-0.447l-0.245,0.31c3.179,1.696,7.312,3.326,10.296,2.039
	c0.786-0.169,0.178,1.038,0.521,0.997c2.51-0.78,5.005,0.932,7.454,0.593c0.506-0.073,0.562-0.907,1.522-0.524
	c0.807-0.078,0.991-0.486,0.829-0.976C220.367,24.47,220.622,24.015,220.421,23.773"/>
</svg>
