<?xml version="1.0" encoding="utf-8"?>
<!-- Generator: Adobe Illustrator 18.1.1, SVG Export Plug-In . SVG Version: 6.00 Build 0)  -->
<svg version="1.1" id="Layer_1" xmlns="http://www.w3.org/2000/svg" xmlns:xlink="http://www.w3.org/1999/xlink" x="0px" y="0px"
	 viewBox="256.5 -192 500 41" enable-background="new 256.5 -192 500 41" xml:space="preserve">
<path fill="#D92E27" d="M754.4-167.5c-0.3,0.1-0.8-0.3-1-0.5c-0.4-0.4-0.9-0.5-1.4-0.6c-3.1-0.6-6-1.8-9.2-3.2c-1.7,0-3-0.3-4.5-0.9
	c-1.4-0.5-2.9-0.4-5.1-0.9c-0.4-0.1-2.8-0.3-3.2-0.4c-0.5-0.1-1.5-0.1-2-0.2c-2.9-0.7-5-0.8-8.2-0.8c0.3,0.3-1.5,0.3-1.9,0.4
	l-0.1-0.3l-0.6,0.2c-0.5,0-0.5-0.3-0.9-0.4c-2.6-0.3-2.7,0.4-5.2,0l-2.9-0.5c-2.5-0.3-5.6-0.8-8.3-1.1c-6.8-1.3-8-0.6-14.7-1.3
	c-6.8-0.2-13.5,0.3-20.5,0.3c-1.1,1.4-2.6,0.7-3.8,1.9l0.1-0.4c-1.1,0.6-1.3-0.1-2.7-0.7c0,0.5-0.5,0.1-0.3,1
	c-0.5,0.7-0.8-1.2-1.5-0.8c0-0.3,0,0.5-0.1,0.2c-1.8,1,0.3-0.5-1.9-1.3c-3.1,0.3-6.3,1.1-9.3,0.6c0.2,0,0.3,0.6,0,0.6
	c-0.3-1.3-1,0.4-1.5-0.2c0-0.3,0.3-0.4,0.4-0.5c-1.4-0.6-2.5,0.3-3.8-0.3c-1.2,0.6-2.6-0.6-3.4,0.1c0.2-0.5-0.5-0.4-0.8-0.7
	c-0.9,1.6-2.4-0.5-3.5,0.5l0-0.3c-3.3,0.1-10.9-0.2-14.4,0.5c0,0,0,0,0,0v-0.1c-1.6-0.2-3.4-1-5.1-0.5c-0.4,0.2-0.1,0.6-0.4,0.7
	c-0.5,0,0-0.5-0.2-0.7c-1,0.6-2.4-0.1-3.8-0.1c-0.2,0.3-0.5,0.3-0.4,0.7c0,0-0.1-0.1-0.2-0.1v-0.1c-0.1,0-0.1,0-0.2,0
	c-0.3-0.1-0.6-0.2-1-0.2c-1.3-0.3-2.6-0.7-3.9-0.2c-0.2,0.1-0.2,0.2-0.2,0.4c-0.1,0-0.3,0-0.4,0c0-0.1,0.1-0.3,0-0.4
	c-1,0.6-2.4-0.1-3.8-0.1c-0.2,0.3-0.5,0.3-0.4,0.7c0,0-0.1-0.1-0.2-0.1v-0.1c-0.1,0-0.1,0-0.2,0c-0.3-0.1-0.6-0.2-1-0.2
	c-1.3-0.3-2.6-0.7-3.9-0.2c-0.2,0.1-0.2,0.2-0.2,0.4c-0.1,0-0.3,0-0.4,0c0-0.1,0.1-0.3,0-0.4c-1,0.6-2.4-0.1-3.8-0.1
	c-0.2,0.3-0.5,0.3-0.4,0.7c-1.5-1.1-7.5,0.4-9-0.4c0.1,0.2,0.1,0.4,0.1,0.5c-0.1,0-0.2,0-0.3,0.1v-0.3c-1.6-0.2-3.4-1-5.1-0.5
	c-0.4,0.2-0.1,0.6-0.4,0.7c-0.5,0,0-0.5-0.2-0.7c-1,0.6-2.4-0.1-3.8-0.1c-0.2,0.3-0.5,0.3-0.4,0.7c-1.5-1.1-7.5,0.4-9-0.4
	c0.5,1.2-0.6,0.9-1.2,1v-0.7c-1.6-0.2-3.4-1-5.1-0.5c-0.4,0.2-0.1,0.5-0.4,0.7c-0.1,0-0.2,0-0.2-0.1c-0.1-0.1,0.2-0.5,0-0.6
	c-1,0.6-2.4-0.1-3.8-0.1c-0.2,0.3-0.5,0.3-0.4,0.7c-1.5-1.1-7.5,0.4-9-0.4c0.5,1.2-0.6,0.9-1.2,1v-0.7c-1.6-0.2-3.4-1-5.1-0.5
	c-0.4,0.2-0.1,0.5-0.4,0.7c-0.1,0-0.2,0-0.2-0.1c-0.1-0.1,0.2-0.5,0-0.6c-1,0.6-2.4-0.1-3.8-0.1c-0.2,0.3-0.5,0.3-0.4,0.7
	c-1.5-1.1-7.5,0.4-9-0.4c0.5,1.2-0.6,0.9-1.2,1v-0.7c-1.6-0.2-3.4-1-5.1-0.5c-0.4,0.2-0.1,0.5-0.4,0.7c-0.1,0-0.2,0-0.2-0.1
	c-0.1-0.1,0.2-0.5,0-0.6c-1,0.6-2.4-0.1-3.8-0.1c-0.2,0.3-0.5,0.3-0.4,0.7c0,0-0.1-0.1-0.2-0.1v-0.1c-0.1,0-0.1,0-0.2,0
	c-0.3-0.1-0.6-0.2-1-0.2c-1.3-0.3-2.6-0.7-3.9-0.2c-0.2,0.1-0.2,0.2-0.2,0.4c-0.1,0-0.3,0-0.4,0c0-0.1,0.1-0.3,0-0.4
	c-1,0.6-2.4-0.1-3.8-0.1c-0.2,0.3-0.5,0.3-0.4,0.7c-1.5-1.1-7.5,0.4-9-0.4c0.1,0.2,0.1,0.4,0.1,0.5c-0.5,0.1-1.1,0.2-1.7,0.2v0.3
	c-0.1-0.2-0.1-0.5,0-0.7l-3.1-0.1c-0.6,0.2-0.8,0.9-1.5,0.7c-0.5-1-1.6,0-2.3-0.4c0.2,0.8-0.7,1.5-1.5,1.1l0.2-1.2
	c-0.4,0.1-0.9,0.2-1.4,0.2v-0.4c-1.6-0.2-3.4-1-5.1-0.5c-0.4,0.2-0.1,0.6-0.4,0.7c-0.5,0,0-0.5-0.2-0.7c-1,0.6-2.4-0.1-3.8-0.1
	c-0.2,0.3-0.5,0.3-0.4,0.7c-1.5-1.1-7.5,0.4-9-0.4c0.5,1.4-0.9,0.8-1.4,1.1c-0.4-0.1-0.3-0.6-0.2-0.8l-3.1-0.1
	c-0.6,0.2-0.8,0.9-1.5,0.7c-0.5-1-1.6,0-2.3-0.4c0.2,0.8-0.7,1.5-1.5,1.1l0.2-1.2c-0.4,0.1-0.9,0.2-1.4,0.2v-0.4
	c-1.6-0.2-3.4-1-5.1-0.5c-0.4,0.2-0.1,0.6-0.4,0.7c-0.5,0,0-0.5-0.2-0.7c-1,0.6-2.4-0.1-3.8-0.1c-0.2,0.3-0.5,0.3-0.4,0.7
	c-1.5-1.1-7.5,0.4-9-0.4c0.5,1.4-0.9,0.8-1.4,1.1c-0.4-0.1-0.3-0.6-0.2-0.8l-3.1-0.1c-0.6,0.2-0.8,0.9-1.5,0.7c-0.5-1-1.6,0-2.3-0.4
	c0.2,0.8-0.7,1.5-1.5,1.1l0.2-1.2c-0.4,0.1-0.9,0.2-1.4,0.2v-0.4c-1.6-0.2-3.4-1-5.1-0.5c-0.4,0.2-0.1,0.6-0.4,0.7
	c-0.5,0,0-0.5-0.2-0.7c-1,0.6-2.4-0.1-3.8-0.1c-0.2,0.3-0.5,0.3-0.4,0.7c-1.5-1.1-7.5,0.4-9-0.4c0.5,1.2-0.6,0.9-1.2,1v-0.7
	c-1.6-0.2-3.4-1-5.1-0.5c-0.4,0.2-0.1,0.5-0.4,0.7c-0.1,0-0.2,0-0.2-0.1c-0.1-0.1,0.2-0.5,0-0.6c-1,0.6-2.4-0.1-3.8-0.1
	c-0.2,0.3-0.5,0.3-0.4,0.7c0,0-0.1-0.1-0.2-0.1v-0.1c0,0-0.1,0-0.2,0c-0.3-0.1-0.6-0.2-1-0.2c-1.3-0.3-2.6-0.7-3.9-0.2
	c-0.2,0.1-0.2,0.2-0.2,0.4c-0.1,0-0.3,0-0.4,0c0-0.1,0.1-0.3,0-0.4c-1,0.6-2.4-0.1-3.8-0.1c-0.2,0.3-0.5,0.3-0.4,0.7
	c-1.5-1.1-7.5,0.4-9-0.4c0.1,0.2,0.1,0.4,0.1,0.5c-0.4,0.1-0.8,0.2-1.3,0.2v-0.4c-1.6-0.2-3.4-1-5.1-0.5c-0.4,0.2-0.1,0.5-0.4,0.7
	c-0.1,0-0.2,0-0.2-0.1c-0.1-0.1,0.2-0.5,0-0.6c-1,0.6-2.4-0.1-3.8-0.1c-0.2,0.3-0.5,0.3-0.4,0.7c-1.5-1.1-7.5,0.4-9-0.4
	c0.5,1.2-0.6,0.9-1.2,1v-0.7c-1.6-0.2-3.4-1-5.1-0.5c-0.4,0.2-0.1,0.5-0.4,0.7c-0.1,0-0.2,0-0.2-0.1c-0.1-0.1,0.2-0.5,0-0.6
	c-1,0.6-2.4-0.1-3.8-0.1c-0.2,0.3-0.5,0.3-0.4,0.7c-1.5-1.1-7.5,0.4-9-0.4c0.5,1.4-0.9,0.8-1.4,1.1c-0.4-0.1-0.3-0.6-0.2-0.8
	l-3.1-0.1c-0.6,0.2-0.8,0.9-1.5,0.7c-0.5-1-1.6,0-2.3-0.4c0,0.1,0,0.3,0,0.4c-0.4-0.1-0.9-0.2-1.3-0.2l0-0.2
	c-0.6,0.2-1.2,0.2-1.8,0.2v0.1c0,0,0,0,0,0c-0.4,0.2-0.1,0.6-0.4,0.7c-0.1,0-0.2,0-0.2-0.1c0.1,0.8-1.1,0.4-1.5,0.6
	c-0.4-0.1-0.3-0.6-0.2-0.8l-2.5,0c0,0.1,0,0.1,0,0.2c-0.1-0.1-0.2-0.2-0.2-0.2l-0.5,0c-0.6,0.2-0.8,0.9-1.5,0.7
	c-0.5-1-1.6,0-2.3-0.4c0.2,0.8-0.7,1.5-1.5,1.1l0.2-1.2c-0.5,0.2-1.1,0.2-1.7,0.2c-1.9,0-4.1-0.4-6,0.6l-0.2-0.7
	c-2.8,0.8-5.6-0.1-8.3,1.3c-0.7-0.4-1.9-0.6-2.6-0.6c-1,0.6-1.3,0.5-2,1.5c-0.4,0.1-0.6-0.5-0.7-0.7c-1.2-0.2-2.4-1.1-3.4,0l0-0.6
	c-1,0.6-2.4,1.3-3.5,0.7c-0.3,0.5-1.4,0.7-0.9,1.4c-0.4,0.1-0.3-1-0.7-0.4l0.4-0.8c-2.5-0.2-4.6,0.3-7,0.7c-0.7-1-2.3,0.1-3.7-0.4
	c-0.8,0.6-2.2-0.8-2.8,0.4c0,0,0.1-0.7-0.1-1.2c-0.3-0.9-2-1.4-3.9-0.9c-0.8-0.1-0.8,0.9-1.4,1.3l0,2c0,0-0.1,0.1-0.1,0.8
	c0,0.7,0.2,0.7,0.2,0.7l0.2,0.2l0.2,0.3c0.2,0,0.3,0.3,0.6,0.3c0.9,0.1,1.7,0.7,2.6,0.9c0.8-0.2,1.1,0.2,1.8-0.3
	c0.7,0,0,1.1,0.7,0.6c0.5,0.6,1.2-0.4,2-0.5c1.1,0.2,1.7,0.2,2.8,0c-0.4,0.1-0.5,0.8-0.1,1.1c0.5-0.7,1.4-1.1,2.3-0.9
	c0-0.7-0.3-0.7-0.2-1.4c0.1-0.1,0.4-0.4,0.6-0.4c0.1,0.7,0.1,1.9,0.9,1.9c-0.8,0.8-2-0.3-1.6,0.9c-0.4,0.9-1.3,1.2-1.6,0.6
	c-0.7,1,0.6,0.1,0.5,1.1c0.7-0.1,1-0.6,2-0.8c0-0.5,0.5-0.2,1-0.6c0.9-1,0.3,0.3,0.5,0.4l-0.5,0.3c0.6,0.3,0.8-0.3,1.5-0.3
	c0.2,1.3-1,0.2-1.3,1l0.5,0.9c1,0.1,0.3-1.1,1.3-0.8l-0.1,0.5l0.6-0.3c0-0.5-0.1-1.2-0.7-1.1c0.3-1.3,0.5-0.2,1.4-0.4
	c0.3-0.7-0.4,0.1-0.4-0.7c-0.1-0.7,0.5-0.7,0.9-0.8c0.7,0,0.4,0.8,0.7,1.3c-0.1,0.1-0.7,0.2-0.6-0.2c-0.9,0.8,0.4,1.5-0.2,2
	c0.8,0.5,0.6-0.9,1.3-0.8c0.5-0.7,0.2-0.5,0-0.8c1.2-2,0.4,1.4,1.5,1c-0.2-1.3,1.1-1,0.3-2.4c0.3-0.2,0.6-0.5,0.9-0.4
	c-0.3,0.9,0.9-0.1,0.4,0.7l0.4,0l-0.6,1c0.5,0.6,1.2,1.2,1.5,1.6c0.6-0.4-0.2-0.8,0.5-1c-0.2,0.4,0.2,0.8,0.5,0.8
	c-0.6-0.3,0-1.2,0.4-1.4c0.6,0,1.1,0.8,1,1l-0.6,0.7c0.4-0.6,0.2,0.3,0.6,0.1c0.1-0.5,0.4-1.2,0.6-1.8c0.4-0.2,0.7,0.4,0.8,0.3
	l-0.6,0.5c0.8-0.2,0.2,1.3,1,1l0.2-0.7c0.2,0.1,0.2,0.4,0.1,0.7c0.1-0.5,0.6-0.4,0.8-0.6l0.1,0.4c0.3-0.3,0.8-1.3,1.2-0.4
	c-0.3-1.1-0.4,0-1-0.5c-0.4-0.8,0.6-0.7,0.7-0.9c0,1.1,0.9,0.1,1.3,0.1c0.2,0.4,0.5,0.6,0.6,0.8l0.2-0.8c0.2,1.5,0.8-0.3,1.3,0.1
	c-0.2,0.5-0.2,1,0.1,1.2c-0.4-1.1,0.7-1.4,0.6-2.1c0.8,0.4-0.2,1.4,0.1,2.2c0.4-0.8,0.9,0.5,1.2-0.5c-0.6-0.3,0.1-0.7,0.2-1.2
	c0.8,0.1-0.1,0.5,0.4,0.9c0.3-0.2,0.7-1,0.2-1.3c0.4,0.2,1-0.8,1.5-0.1c0.2,0.7-0.9,0.3-0.6,0.8c1.1,0.1,0.5-1.7,1.5-1.9l0.4-0.7
	l0.4-0.1c0.6,1.2-1.3,2-0.7,2.9l0.5-0.4c-0.1,0.3-0.3,0.9-0.1,1.3c0.1-0.8,1.1-0.2,1.2-0.4c0.1-0.7-0.4,0.2-0.3-0.3
	c0.5-0.2,0.7-1.4,1.5-0.9c-0.4,0.5,0.2,1,0,1.4c0.4,0.3,0.1-0.8,0.7-0.4l-0.1,0.4c1.6,0.1,3.5,0.1,5.1-0.8v-0.4
	c0.2-0.1,0.3-0.3,0.5-0.4c0.3,0.7,1,0.8,2,1.3c-0.4-0.2,0-0.7,0.2-0.8l0.5,0.8c0.6,0.5,1.4-0.3,1.9-0.8l0.2,0.6
	c0.5,0.5,0.5-0.5,0.7-0.6l0.2,0.4c-0.1,0-0.1,0,0,0l0.1,0.2l0-0.2c0,0,0,0,0,0c0,0,0,0,0,0l0-0.4c0.1-0.1,0.2-0.1,0.3-0.1
	c0,0,0,0,0-0.1c0,0,0,0,0.1,0c0.3,0,0.6,0.1,0.7,0.4c0.1,0,0.2,0,0.3,0c0,0,0-0.1-0.1-0.1c0,0,0.1,0.1,0.2,0.1
	c0.7,0,1.5-0.3,2.1-0.1c-0.2-0.3-0.1-0.9,0.2-1.3c0,0.1,0,0.1-0.1,0.3c0,0.6,0,0.9,0.4,1.1c-0.2,0.1-0.4,0.1-0.7,0.1
	c0.7-0.1,1.2-0.2,0.8-0.6c0.5-0.3,0-0.6,0-1c-0.3,0.4-0.4,0-0.5,0c0.1-0.1,0.3-0.2,0.4-0.3c0.7-0.8,0.3,1.1,0.9,1.6
	c0.3-0.4,0.8-0.5,1.1-0.4l0,0.1c0.4-0.4,0.9-0.7,1.4-0.3l-0.1,0.1c0.3,0.1,0.8,0.6,1.1,0.5c0.1-0.3,0.2-0.4,0.4-0.5l0,0
	c0.6,0.5,1.4-0.3,1.9-0.8l0.2,0.6c0.5,0.5,0.5-0.5,0.7-0.6l0.3,0.6l0.1-0.6c0.5-0.3,1.2-0.2,1.2,0.7c0.2-0.2,0.4-0.4,0.1-0.6
	c0.5,0.5,2,0.5,2.9,0.2c-0.4-0.2-0.4-0.5-0.4-1.1c0.1-1,0.2,0.2,0.6-0.4c0,0.4,0.4,0.7,0,1c1.3,1.3,7,0.2,8.6,0.5
	c0.1-0.1,0.2-0.1,0.2-0.2c0.1-0.1,0.3-0.2,0.4-0.2c0.4,0.3,0.8,0.3,1.3,0.3c0.3,0.2,0.7,0.3,1.2,0.6c-0.3-0.2-0.2-0.5,0-0.7
	c0.1,0,0.2,0,0.3,0l0.4,0.6c0.6,0.5,1.4-0.3,1.9-0.8l0.2,0.6c0.5,0.5,0.5-0.5,0.7-0.6l0.3,0.6l0.1-0.6c0.5-0.3,1.2-0.2,1.2,0.7
	c0.2-0.2,0.4-0.4,0.1-0.6c0.5,0.5,2,0.5,2.9,0.2c-0.4-0.2-0.4-0.5-0.4-1.1c0.1-1,0.2,0.2,0.6-0.4c0,0.4,0.4,0.7,0,1
	c1.3,1.3,7,0.2,8.6,0.5c0.1-0.1,0.2-0.1,0.2-0.2c0.1-0.1,0.3-0.2,0.4-0.2c0.4,0.3,0.8,0.3,1.3,0.3c0.3,0.2,0.7,0.3,1.2,0.6
	c-0.3-0.2-0.2-0.5,0-0.7c0.1,0,0.2,0,0.3,0l0.4,0.6c0.6,0.5,1.4-0.3,1.9-0.8l0.2,0.6c0.5,0.5,0.5-0.5,0.7-0.6l0.3,0.6l0.1-0.6
	c0.5-0.3,1.2-0.2,1.2,0.7c0.2-0.2,0.4-0.4,0.1-0.6c0.5,0.5,2,0.5,2.9,0.2c-0.3-0.2-0.4-0.3-0.4-0.6c0.1-0.1,0.2-0.1,0.3-0.2
	c0.3,0.7,1,0.8,2,1.3c-0.2-0.1-0.2-0.2-0.2-0.3c0.2,0,0.5,0.1,0.7,0.1l0.2,0.3c0.4,0.3,0.9,0.1,1.3-0.3c0.2,0,0.5,0,0.7,0l0,0.1
	c0.3,0.3,0.4,0.1,0.5-0.2c0.2,0,0.3,0,0.5,0l0.1,0.1l0-0.1c0.4,0,0.8,0,1.2-0.1c0,0.1,0,0.2,0,0.4c0.1-0.1,0.3-0.2,0.3-0.4
	c0.1,0,0.2,0,0.2,0c0.7,0.3,1.8,0.3,2.5,0c-0.1-0.1-0.2-0.1-0.2-0.2c0.3,0.1,0.6,0.1,0.9,0c1.9,0.7,6.6-0.1,8,0.2
	c0.1-0.1,0.2-0.1,0.2-0.2c0.1-0.1,0.3-0.2,0.4-0.2c0.4,0.3,0.8,0.3,1.3,0.3c0.3,0.2,0.7,0.3,1.2,0.6c-0.3-0.2-0.2-0.5,0-0.7
	c0.1,0,0.2,0,0.3,0l0.4,0.6c0.6,0.5,1.4-0.3,1.9-0.8l0.2,0.6c0.5,0.5,0.5-0.5,0.7-0.6l0.3,0.6l0.1-0.6c0.5-0.3,1.2-0.2,1.2,0.7
	c0.2-0.2,0.4-0.4,0.1-0.6c0.5,0.5,2,0.5,2.9,0.2c-0.4-0.2-0.4-0.5-0.4-1.1c0.1-1,0.2,0.2,0.6-0.4c0,0.4,0.4,0.7,0,1
	c1.3,1.3,7,0.2,8.6,0.5c0.3-0.1,0.2-0.3,0.4-0.6c1,1,2.2-0.1,3.3,0.4c-0.2-0.4,0.1-1.5,0.7-1.6c0.7-0.8,0.3,1.1,0.9,1.6
	c0.3-0.4,0.8-0.5,1.1-0.4l0,0.1c0.4-0.4,0.9-0.7,1.4-0.3l-0.1,0.1c0.3,0.1,0.8,0.6,1.1,0.5c0.2-0.7,1-0.3,1.3-0.9v1.1
	c0.4-0.2,0.8-0.5,1.2-0.8c0.3,0.7,1,0.8,2,1.3c-0.4-0.2,0-0.7,0.2-0.8l0.5,0.8c0.6,0.5,1.4-0.3,1.9-0.8l0.2,0.6
	c0.5,0.5,0.5-0.5,0.7-0.6l0.3,0.6l0.1-0.6c0.5-0.3,1.2-0.2,1.2,0.7c0.2-0.2,0.4-0.4,0.1-0.6c0.5,0.5,2,0.5,2.9,0.2
	c-0.4-0.2-0.4-0.5-0.4-1.1c0.1-1,0.2,0.2,0.6-0.4c0,0.4,0.4,0.7,0,1c1.3,1.3,7,0.2,8.6,0.5c0.3-0.1,0.2-0.3,0.4-0.6
	c1,1,2.2-0.1,3.3,0.4c-0.2-0.4,0.1-1.5,0.7-1.6c0.7-0.8,0.3,1.1,0.9,1.6c0.3-0.4,0.8-0.5,1.1-0.4l0,0.1c0.4-0.4,0.9-0.7,1.4-0.3
	l-0.1,0.1c0.3,0.1,0.8,0.6,1.1,0.5c0.2-0.7,1-0.3,1.3-0.9v1.1c0.4-0.2,0.8-0.5,1.2-0.8c0.3,0.7,1,0.8,2,1.3c-0.4-0.2,0-0.7,0.2-0.8
	l0.5,0.8c0.6,0.5,1.4-0.3,1.9-0.8l0.2,0.6c0.5,0.5,0.5-0.5,0.7-0.6l0.3,0.6l0.1-0.6c0.5-0.3,1.2-0.2,1.2,0.7
	c0.2-0.2,0.4-0.4,0.1-0.6c0.5,0.5,2,0.5,2.9,0.2c-0.4-0.2-0.4-0.5-0.4-1.1c0.1-1,0.2,0.2,0.6-0.4c0,0.4,0.4,0.7,0,1
	c1.3,1.3,7,0.2,8.6,0.5c0.3-0.1,0.2-0.3,0.4-0.6c1,1,2.2-0.1,3.3,0.4c-0.2-0.4,0.1-1.5,0.7-1.6c0.7-0.8,0.3,1.1,0.9,1.6
	c0.3-0.4,0.8-0.5,1.1-0.4l0,0.1c0.4-0.4,0.9-0.7,1.4-0.3l-0.1,0.1c0.4,0.1,0.8,0.6,1.1,0.5c0.2-0.7,1-0.3,1.3-0.9v1.1
	c0.4-0.2,0.8-0.5,1.2-0.8c0.3,0.7,1,0.8,2,1.3c-0.4-0.2,0-0.7,0.2-0.8l0.5,0.8c0.6,0.5,1.4-0.3,1.9-0.8l0.2,0.6
	c0.5,0.5,0.5-0.5,0.7-0.6l0.3,0.6l0.1-0.6c0.5-0.3,1.2-0.2,1.2,0.7c0.2-0.2,0.4-0.4,0.1-0.6c0.5,0.5,2,0.5,2.9,0.2
	c-0.3-0.2-0.4-0.3-0.4-0.6c0.1-0.1,0.2-0.1,0.3-0.2c0.3,0.7,1,0.8,2,1.3c-0.2-0.1-0.2-0.2-0.2-0.3c0.2,0,0.5,0.1,0.7,0.1l0.2,0.3
	c0.4,0.3,0.9,0.1,1.3-0.3c0.2,0,0.5,0,0.7,0l0,0.1c0.3,0.3,0.4,0.1,0.5-0.2c0.2,0,0.3,0,0.5,0l0.1,0.1l0-0.1c0.4,0,0.8,0,1.2-0.1
	c0,0.1,0,0.2,0,0.4c0.1-0.1,0.3-0.2,0.3-0.4c0.1,0,0.2,0,0.2,0c0.7,0.3,1.8,0.3,2.5,0c-0.1-0.1-0.2-0.1-0.2-0.2
	c0.3,0.1,0.6,0.1,0.9,0c1.9,0.7,6.6-0.1,8,0.2c0.1-0.1,0.2-0.1,0.2-0.2c0.1-0.1,0.3-0.2,0.4-0.2c0.4,0.3,0.8,0.3,1.3,0.3
	c0.3,0.2,0.7,0.3,1.2,0.6c-0.3-0.2-0.2-0.5,0-0.7c0.1,0,0.2,0,0.3,0l0.4,0.6c0.6,0.5,1.4-0.3,1.9-0.8l0.2,0.6
	c0.5,0.5,0.5-0.5,0.7-0.6l0.3,0.6l0.1-0.6c0.5-0.3,1.2-0.2,1.2,0.7c0.2-0.2,0.4-0.4,0.1-0.6c0.5,0.5,2,0.5,2.9,0.2
	c-0.4-0.2-0.4-0.5-0.4-1.1c0.1-1,0.2,0.2,0.6-0.4c0,0.4,0.4,0.7,0,1c1.3,1.3,7,0.2,8.6,0.5c0.1-0.1,0.2-0.1,0.2-0.2
	c0.1-0.1,0.3-0.2,0.4-0.2c0.4,0.3,0.8,0.3,1.3,0.3c0.3,0.2,0.7,0.3,1.2,0.6c-0.3-0.2-0.2-0.5,0-0.7c0.1,0,0.2,0,0.3,0l0.4,0.6
	c0.6,0.5,1.4-0.3,1.9-0.8l0.2,0.6c0.5,0.5,0.5-0.5,0.7-0.6l0.3,0.6l0.1-0.6c0.5-0.3,1.2-0.2,1.2,0.7c0.2-0.2,0.4-0.4,0.1-0.6
	c0.5,0.5,2,0.5,2.9,0.2c-0.4-0.2-0.4-0.5-0.4-1.1c0.1-1,0.2,0.2,0.6-0.4c0,0.4,0.4,0.7,0,1c1.3,1.3,7,0.2,8.6,0.5
	c0.1-0.1,0.2-0.1,0.2-0.2c0.1-0.1,0.3-0.2,0.4-0.2c0.4,0.3,0.8,0.3,1.3,0.3c0.3,0.2,0.7,0.3,1.2,0.6c-0.3-0.2-0.2-0.5,0-0.7
	c0.1,0,0.2,0,0.3,0l0.4,0.6c0.6,0.5,1.4-0.3,1.9-0.8l0.2,0.6c0.5,0.5,0.5-0.5,0.7-0.6l0.3,0.6l0.1-0.6c0.5-0.3,1.2-0.2,1.2,0.7
	c0.2-0.2,0.4-0.4,0.1-0.6c0.5,0.5,2,0.5,2.9,0.2c-0.4-0.2-0.4-0.5-0.4-1.1c0.1-1,0.2,0.2,0.6-0.4c0,0.4,0.4,0.7,0,1
	c1.1,1.1,5.3,0.5,7.6,0.5v0c0,0,0,0,0,0c0.4,0,0.8,0,1,0c0.3-0.1,0.2-0.3,0.4-0.5c0.4,0.4,0.9,0.5,1.8,0.9c-0.3-0.1-0.2-0.4-0.1-0.6
	c0.1,0,0.3,0,0.4-0.1l0.4,0.6c0.6,0.5,1.4-0.3,1.9-0.8l0.2,0.6c0.5,0.5,0.5-0.5,0.7-0.6l0.3,0.6l0.1-0.6c0.1,0,0.2-0.1,0.2-0.1l0,0
	c0,0,0,0,0.1-0.1c0.5-0.1,0.9,0.1,0.9,0.9c0.2-0.2,0.4-0.4,0.1-0.6c0.5,0.5,2,0.5,2.9,0.2c-0.3-0.2-0.4-0.3-0.4-0.6
	c0.1-0.1,0.2-0.1,0.3-0.2c0.3,0.7,1,0.8,2,1.3c-0.2-0.1-0.2-0.2-0.2-0.3c0.2,0,0.5,0.1,0.7,0.1l0.2,0.3c0.4,0.3,0.9,0.1,1.3-0.3
	c0.2,0,0.5,0,0.7,0l0,0.1c0.3,0.3,0.4,0.1,0.5-0.2c0.2,0,0.3,0,0.5,0l0.1,0.1l0-0.1c0.4,0,0.8,0,1.2-0.1c0,0.1,0,0.2,0,0.4
	c0.1-0.1,0.3-0.2,0.3-0.4c0.1,0,0.2,0,0.2,0c0.7,0.3,1.8,0.3,2.5,0c-0.1-0.1-0.2-0.1-0.2-0.2c0.3,0.1,0.5,0.1,0.8,0
	c0.3,0.2,0.7,0.3,1.2,0.6c-0.2-0.1-0.2-0.2-0.2-0.3c0.2,0,0.5,0.1,0.7,0.1l0.2,0.3c0.4,0.3,0.9,0.1,1.3-0.3c0.2,0,0.5,0,0.7,0l0,0.1
	c0.3,0.3,0.4,0.1,0.5-0.2c0.2,0,0.3,0,0.5,0l0.1,0.1l0-0.1c0.4,0,0.8,0,1.2-0.1c0,0.1,0,0.2,0,0.4c0.1-0.1,0.3-0.2,0.3-0.4
	c0.1,0,0.2,0,0.2,0c0.7,0.3,1.8,0.3,2.5,0c-0.1-0.1-0.2-0.1-0.2-0.2c0.3,0.1,0.6,0.1,0.9,0c1.9,0.7,6.6-0.1,8,0.2
	c0.3-0.1,0.2-0.3,0.4-0.6c1,1,2.2-0.1,3.3,0.4c-0.2-0.4,0.1-1.5,0.7-1.6c0.7-0.8,0.3,1.1,0.9,1.6c0.3-0.4,0.8-0.5,1.1-0.4l0,0.1
	c0.4-0.4,0.9-0.7,1.4-0.3l-0.1,0.1c0.3,0.1,0.8,0.6,1.1,0.5c0.1-0.4,0.4-0.5,0.8-0.6c-0.1,0.1-0.1,0.2-0.2,0.3
	c0.5,0.3,0.5-0.1,0.5-0.4c0.1-0.1,0.2-0.1,0.2-0.3c0,0.1,0,0.1,0.1,0.3l0-0.6l0.1,0c0,0.1-0.1,0.3,0,0.4c-0.1,0.2-0.1,0.1,0,0.1
	c0,0,0,0,0,0c0.1,0,0,0,0,0c-0.3,0.5,0.3,0.2,0.3,0.6c0.1,0,0.2-0.8,0.6-0.6c0.3,0.1,1.2-0.1,1.1,0.6c0.3-0.4,0.6-0.3,0.9-0.6
	c-0.3-0.1-0.8-0.3-0.9-0.7c0.3-0.1,0.8-0.3,0.8,0l-0.2,0.2c0.2-0.2,1,0,0.6-0.6l0.5,0.9c0.2-0.5,0.7-0.5,1.2-0.6
	c0,0.7-0.3,1.5,0.5,1.7l0.7-0.7c0.4-0.1,4.5,0.1,4.4,0.5c1.3,0.4,1.3-2,2.3-1.3l0.6,0.2c0.9,1.8,2.9,0.4,4.4,1.3
	c-0.1-1,0.6-0.3,0.9-0.7c-0.1,1.1,0.8-0.2,1.2,0.4l-0.2-1c0.9,0.6,1.4-1.6,2-0.3c0.5,0.3-0.2,0.8-0.4,0.9c0.7,1.1,1.8-0.9,2.4,0.3
	c0.1-0.4-0.2-1.1,0.4-1.5c0.5,0.4,1.4,1,1.3,1.2c0.4-0.2,0.5-0.5,0.9-0.2c0,0.3-0.2,0.3-0.4,0.4c0.7,0.3,1.2-0.2,1.8-0.6
	c0.4,0.8,1.6,0.4,2.3,0.8c0.4-1,1.3,0.4,1.3-0.9c0,0.1,0.1,0.3,0.1,0.4c0.3-0.4,0.5-1.2,0.9-1.2l-0.1,0.8c-0.1,1.1,1,0.2,1.1,0.7
	c-0.3-0.7,0.4,0,0.5-0.6l0.4-0.3c0.7-0.2,0.1-0.4,0.9-0.5c0.5,0,0.2,1,0,0.9c0.4,0.5,0.8,0.2,1.3,0c-0.1,0-0.1-0.1-0.1-0.2l0.6,0.1
	c-0.2,0-0.3,0.1-0.5,0.1c0.2,0.2,0.7,0,0.9,0.3l-0.1,0.6c0.3,0,1.1-0.7,1.1-1c1.2,0.6,3.1,0.1,3.9-0.2c-0.2,0.1-0.2,0.4,0,0.1
	c0.4-0.1,0.9-0.7,0.9-0.2c0.4-0.3,0.4,0.5,0.9,0.5c0,0.1,0.1-0.4,0-0.5c0,0,0,0-0.1,0c0,0,0.1,0,0.1,0c1,0.9,2.3-0.6,3.5,0.1
	l2.3-0.7c-0.1,0.3-0.1,0.6-0.3,0.7c0.5,0,1.1-0.1,1.5-0.4c0,0,0,0-0.1,0c-0.4-0.6,0.4-1.2,0.8-1l0,0.1c0.6,0,0.7-0.3,1.3-0.3
	c0.4,0.4-0.3,0.2-0.2,0.6c0.1,1,1.5,0.7,1.6,0.8c0.2-0.2,0.4-0.4,0.4-0.7c0.5-0.3,0.2,0.6,0.6,0.6l1.5-1.9c-0.1,0.3,0.4,0.9,0,1.2
	c1.1-0.1,1.7-1.3,2.4-1.9c0.3,0.2,1.4-0.2,1.7-0.2c0.1,0.6-0.3-0.1-0.4,0.4l0.5,0.7c-0.7,0.1,0,1-0.4,1.4c0.6-0.3,1.9,0.1,2.7,0.4
	c-0.5-1.2,1.2-0.5,1.2-1.6c1-0.1,0.4,0.9,0.8,1.1c1.1-0.4,2,0,3-0.1c0,0,0,0.1,0,0.2c0.9-0.3,2.2,0.1,3.2-0.8
	c-0.1,0.2,0,0.4-0.2,0.6c0.9,0.4,0.3-1.4,1.3-0.6l-0.3,0.5c0.7-0.5,1.3,0.5,2.1-0.2c0,0.3-0.2,0.4-0.3,0.5c0.7-0.2,1.5,0,2.1-0.7
	c0.1,0.3,0,0.6-0.3,0.9c0.7,0.5,0.8-0.9,1.4-0.5c0.2,0.1,0.5,0.5,0.4,0.5c0.3-0.4,1.3-0.4,1.6-0.5c0.1,0.3,0.3,0.5,0.7,0.9
	c3.4,0.2,4.6,0.9,8.1,0.2c0.5,1.1,1.3,0,1.6,0.8c0.8,0.3,0.7,0.2,1.8,0l0,0.1c0.5-0.2,0.7,0.5,1.2,0.2l0-0.2c0.6-0.5,1,1.3,1.4,0.1
	l0.3,0.7c0.6-1,0.8,0.4,1.5-0.4l-0.1,0.2c0.8,0.5,1.8-1,2.1-0.1c0.7-0.1,1.6-0.2,1.8-1c0.1,0.3,0,0.8-0.2,1.1
	c2.7-0.1,5.6,0.4,8.1-0.5c0.1,0.2-0.1,0.3-0.2,0.5c1.6-0.8,2.9,1.3,4.2-0.3l0.5-0.7c0.3,0.3,0.2,0.9,0.5,1.2c0.3-0.5,1.4,0,1.6-0.6
	c0.1,0.3-0.1,0.4-0.1,0.6c0.7,0.2,1.6-0.8,2.2-0.4l-0.2,0.3c3.2,1.7,7.3,3.3,10.3,2c0.8-0.2,0.2,1,0.5,1c2.5-0.8,5,0.9,7.5,0.6
	c0.5-0.1,0.6-0.9,1.5-0.5c0.8-0.1,1-0.5,0.8-1C754.4-166.8,754.6-167.2,754.4-167.5 M318-176.3C318-176.3,318-176.3,318-176.3
	C318-176.3,318-176.3,318-176.3c0.1,0,0.2-0.1,0.1-0.1c0-0.1,0-0.2,0-0.3c-1,0.6-2.4-0.1-3.8-0.1c-0.1,0.1-0.2,0.2-0.3,0.3
	C314.8-176.6,317.4-176.2,318-176.3 M315.6-167.8c0.4,0.1,0.9,0.1,1.3,0C316.6-167.8,316.1-167.8,315.6-167.8 M314.5-167.6
	c0.1-0.1,0.2-0.2,0.2-0.3c-0.1,0-0.2,0-0.2,0C314.6-167.8,314.6-167.7,314.5-167.6 M314-176.5c-0.2,0-0.3,0.1-0.3,0.2l0.2,0
	C313.9-176.4,313.9-176.5,314-176.5 M314.8-168.1c0,0.1,0.1,0.2,0,0.2c0.3,0,0.5,0,0.8,0C315.3-167.9,315.1-168,314.8-168.1
	C314.8-168.1,314.8-168.1,314.8-168.1 M313.8-168.5C313.7-168.5,313.7-168.5,313.8-168.5c-0.2,0.2-0.2,0.4-0.4,0.5
	c0.3,0,0.7,0.1,1.2,0.1c0-0.1,0-0.2-0.1-0.2C314.2-168.2,314-168.3,313.8-168.5"/>
</svg>
