<?xml version="1.0" encoding="utf-8"?>
<!-- Generator: Adobe Illustrator 18.1.1, SVG Export Plug-In . SVG Version: 6.00 Build 0)  -->
<svg version="1.1" id="Layer_1" xmlns="http://www.w3.org/2000/svg" xmlns:xlink="http://www.w3.org/1999/xlink" x="0px" y="0px"
	 viewBox="139.7 5.5 283.2 6.5" enable-background="new 139.7 5.5 283.2 6.5" xml:space="preserve">
<path fill="#D92E27" d="M422.9,11.6c-0.2,0-0.7-0.1-0.8-0.2c-0.4-0.2-0.7-0.2-1.1-0.3c-2.6-0.3-5-0.9-7.5-1.5
	c-1.4,0-2.5-0.1-3.7-0.4c-1.1-0.2-2.4-0.2-4.2-0.4c-0.3,0-2.3-0.2-2.6-0.2c-0.4-0.1-1.3,0-1.7-0.1c-2.4-0.3-4.1-0.4-6.7-0.4
	c0.3,0.2-1.3,0.1-1.5,0.2l0-0.1l-0.5,0.1c-0.4,0-0.4-0.1-0.7-0.2c-2.1-0.1-2.2,0.2-4.3,0L385,7.8c-2.1-0.2-4.6-0.4-6.8-0.5
	c-5.5-0.6-6.6-0.3-12.1-0.6c-5.6-0.1-11.1,0.1-16.8,0.2c-0.9,0.7-2.1,0.3-3.2,0.9l0.1-0.2c-0.9,0.3-1.1-0.1-2.2-0.3
	c0,0.2-0.4,0.1-0.3,0.5c-0.4,0.3-0.7-0.6-1.2-0.4c0-0.1,0,0.2-0.1,0.1c-1.5,0.5,0.3-0.2-1.5-0.6c-2.6,0.1-5.2,0.5-7.7,0.3
	c0.2,0,0.2,0.3,0,0.3c-0.2-0.6-0.8,0.2-1.3-0.1c0-0.1,0.2-0.2,0.4-0.2c-1.1-0.3-2.1,0.1-3.1-0.1c-1,0.3-2.2-0.3-2.8,0.1
	c0.2-0.3-0.4-0.2-0.7-0.3c-0.7,0.8-4.2-0.3-5.1,0.3l0-0.1c-0.9,0-1.8,0-2.8,0c-0.8-0.1-1.7-0.2-2.5,0c0,0-0.1,0-0.1,0
	c-0.1,0-0.3,0-0.4,0c0,0,0,0,0,0c-0.1,0-0.1,0-0.2,0.1c-0.3,0-0.6,0-1,0.1c-0.6,0-1.3-0.2-1.9-0.2c-0.1,0.1-0.3,0.2-0.3,0.3
	c-0.1,0-0.1,0-0.2,0c-1.2-0.4-2.7,0.2-3.8-0.1c0.4,0.7-0.7,0.4-1.2,0.5c-0.3,0-0.3-0.3-0.1-0.4l-1.2,0c-1.2-0.1-2.6-0.4-3.9-0.2
	c-0.3,0.1-0.1,0.3-0.3,0.3c-0.4,0,0-0.2-0.2-0.3c-0.9,0.3-2-0.1-3.1-0.1c-0.1,0.1-0.4,0.2-0.3,0.3c-1.2-0.5-2.8,0.2-4.1-0.2
	c0.4,0.6-0.6,0.4-1.1,0.5V6.9c-1.3-0.1-2.8-0.5-4.2-0.2c-0.3,0.1-0.1,0.2-0.3,0.3c-0.1,0-0.1,0-0.2,0c-0.1-0.1,0.1-0.2,0-0.3
	c-0.9,0.3-2-0.1-3.1-0.1c-0.1,0.1-0.4,0.2-0.3,0.3c-1.2-0.5-2.8,0.2-4.1-0.2c0.4,0.6-0.6,0.4-1.1,0.5V6.9c-1.3-0.1-2.8-0.5-4.2-0.2
	c-0.3,0.1-0.1,0.2-0.3,0.3c-0.1,0-0.1,0-0.2,0c-0.1-0.1,0.1-0.2,0-0.3c-0.9,0.3-2-0.1-3.1-0.1c-0.1,0.1-0.4,0.2-0.3,0.3
	c-1.2-0.5-2.8,0.2-4.1-0.2c0.4,0.6-0.6,0.4-1.1,0.5V6.9c-1.3-0.1-2.8-0.5-4.2-0.2c-0.3,0.1-0.1,0.2-0.3,0.3c-0.1,0-0.1,0-0.2,0
	c-0.1-0.1,0.1-0.2,0-0.3c-0.9,0.3-2-0.1-3.1-0.1c-0.1,0.1-0.4,0.2-0.3,0.3c-1.2-0.5-2.8,0.2-4.1-0.2c0.4,0.6-0.6,0.4-1.1,0.5V6.9
	c-1.3-0.1-2.8-0.5-4.2-0.2c-0.3,0.1-0.1,0.2-0.3,0.3c-0.1,0-0.1,0-0.2,0c-0.1-0.1,0.1-0.2,0-0.3c-0.9,0.3-2-0.1-3.1-0.1
	c-0.1,0.1-0.4,0.2-0.3,0.3c-1.2-0.5-2.8,0.2-4.1-0.2c0.4,0.7-0.7,0.4-1.2,0.5c-0.3,0-0.3-0.3-0.1-0.4l-2.5,0
	c-0.5,0.1-0.6,0.4-1.3,0.3c-0.1-0.1-0.2-0.2-0.4-0.2V6.9c-1.3-0.1-2.8-0.5-4.2-0.2c-0.3,0.1-0.1,0.3-0.3,0.3c-0.4,0,0-0.2-0.2-0.3
	c-0.9,0.3-2-0.1-3.1-0.1c-0.1,0.1-0.4,0.2-0.3,0.3c-1.2-0.5-2.8,0.2-4.1-0.2c0.4,0.7-0.7,0.4-1.2,0.5c-0.3,0-0.3-0.3-0.1-0.4l-2.5,0
	c-0.5,0.1-0.6,0.4-1.3,0.3c-0.4-0.5-1.3,0-1.9-0.2c0.1,0.3-0.3,0.5-0.7,0.6V6.9c-1.3-0.1-2.8-0.5-4.2-0.2c-0.3,0.1-0.1,0.3-0.3,0.3
	c-0.4,0,0-0.2-0.2-0.3c-0.9,0.3-2-0.1-3.1-0.1c-0.1,0.1-0.4,0.2-0.3,0.3c-1.2-0.5-2.8,0.2-4.1-0.2c0.4,0.7-0.7,0.4-1.2,0.5
	c-0.3,0-0.3-0.3-0.1-0.4l-2.5,0c-0.5,0.1-0.6,0.4-1.3,0.3c-0.3-0.4-0.9-0.2-1.5-0.2V6.9c-1.3-0.1-2.8-0.5-4.2-0.2
	c-0.3,0.1-0.1,0.3-0.3,0.3c-0.4,0,0-0.2-0.2-0.3c-0.9,0.3-2-0.1-3.1-0.1c-0.1,0.1-0.4,0.2-0.3,0.3c-1.2-0.5-2.8,0.2-4.1-0.2
	c0.4,0.7-0.7,0.4-1.2,0.5c-0.3,0-0.3-0.3-0.1-0.4l-2.5,0c-0.5,0.1-0.6,0.4-1.3,0.3c-0.4-0.5-1.3,0-1.9-0.2c0,0,0,0,0,0.1
	c-0.4,0-0.7,0-1.1,0l0-0.1c-0.5,0.1-1,0.1-1.5,0.1v0.1c-0.4,0.1-0.7,0.1-1.1,0.2l-0.2-0.3c-2.3,0.4-4.6,0-6.8,0.6
	c-0.6-0.2-1.6-0.3-2.1-0.3c-0.8,0.3-1.1,0.2-1.6,0.7c-0.3,0-0.5-0.2-0.6-0.3c-1-0.1-2-0.5-2.8,0l0-0.3c-0.8,0.3-2,0.6-2.9,0.3
	c-0.2,0.2-1.2,0.3-0.7,0.7c-0.4,0.1-0.2-0.5-0.6-0.2l0.3-0.4c-2-0.1-3.8,0.1-5.7,0.4c-0.6-0.5-1.9,0.1-3-0.2
	c-0.6,0.3-1.8-0.4-2.3,0.2c0,0,0.1-0.3,0-0.6c-0.3-0.4-1.6-0.7-3.2-0.4c-0.7-0.1-0.7,0.4-1.2,0.6l0,1c0,0-0.1,0-0.1,0.4
	c0,0.3,0.2,0.3,0.2,0.3l0.1,0.1l0.2,0.1c0.2,0,0.2,0.2,0.5,0.1c0.8,0,1.4,0.3,2.2,0.4c0.7-0.1,0.9,0.1,1.5-0.1c0.6,0,0,0.5,0.6,0.3
	c0.4,0.3,1-0.2,1.6-0.3c0.9,0.1,1.4,0.1,2.3,0c-0.3,0-0.4,0.4-0.1,0.5c0.4-0.3,1.1-0.5,1.9-0.4c0-0.3-0.3-0.3-0.2-0.7
	c0.1-0.1,0.3-0.2,0.5-0.2c0.1,0.4,0.1,0.9,0.8,0.9c-0.6,0.4-1.6-0.1-1.3,0.4c-0.3,0.4-1,0.6-1.3,0.3c-0.6,0.5,0.5,0.1,0.4,0.5
	c0.5,0,0.8-0.3,1.6-0.4c0-0.2,0.4-0.1,0.8-0.3c0.7-0.5,0.3,0.2,0.4,0.2l-0.4,0.1c0.5,0.2,0.7-0.2,1.2-0.1c0.2,0.6-0.8,0.1-1,0.5
	l0.4,0.5c0.8,0.1,0.2-0.5,1.1-0.4l-0.1,0.2l0.5-0.1c0-0.2-0.1-0.6-0.6-0.5c0.3-0.6,0.4-0.1,1.1-0.2c0.2-0.4-0.3,0-0.3-0.3
	c-0.1-0.3,0.4-0.3,0.8-0.4c0.6,0,0.3,0.4,0.5,0.6c-0.1,0.1-0.6,0.1-0.5-0.1c-0.7,0.4,0.3,0.7-0.2,1c0.7,0.2,0.5-0.4,1.1-0.4
	c0.4-0.3,0.2-0.2,0-0.4c0.9-1,0.3,0.6,1.2,0.5c-0.2-0.6,0.9-0.5,0.2-1.1c0.2-0.1,0.5-0.3,0.7-0.2c-0.2,0.4,0.8,0,0.3,0.4l0.3,0
	l-0.5,0.5c0.4,0.3,1,0.6,1.2,0.8c0.5-0.2-0.2-0.4,0.4-0.5c-0.2,0.2,0.2,0.4,0.4,0.4c-0.5-0.2,0-0.6,0.3-0.7c0.5,0,0.9,0.4,0.8,0.5
	l-0.5,0.4c0.4-0.3,0.2,0.2,0.5,0c0.1-0.2,0.3-0.6,0.5-0.9c0.3-0.1,0.5,0.2,0.7,0.1l-0.5,0.2c0.7-0.1,0.1,0.6,0.8,0.5l0.2-0.3
	c0.1,0,0.2,0.2,0.1,0.3c0.1-0.2,0.5-0.2,0.7-0.3l0,0.2c0.3-0.1,0.6-0.6,1-0.2c-0.3-0.5-0.3,0-0.8-0.2c-0.3-0.4,0.5-0.4,0.6-0.4
	c0,0.5,0.7,0,1.1,0.1c0.2,0.2,0.4,0.3,0.5,0.4l0.1-0.4c0.1,0.7,0.7-0.2,1.1,0.1c-0.2,0.2-0.2,0.5,0.1,0.6c-0.4-0.5,0.6-0.6,0.5-1
	c0.7,0.2-0.2,0.7,0,1c0.3-0.4,0.8,0.3,1-0.3c-0.5-0.2,0.1-0.3,0.2-0.6c0.6,0-0.1,0.2,0.3,0.4c0.3-0.1,0.6-0.5,0.2-0.6
	c0.4,0.1,0.8-0.4,1.2-0.1c0.2,0.3-0.8,0.1-0.5,0.4c0.9,0,0.4-0.8,1.3-0.9l0.3-0.3l0.4-0.1c0.5,0.6-1.1,0.9-0.6,1.4l0.4-0.2
	c-0.1,0.2-0.2,0.5-0.1,0.6c0.1-0.4,0.9-0.1,1-0.2c0.1-0.3-0.3,0.1-0.3-0.2c0.4-0.1,0.6-0.6,1.2-0.4c-0.4,0.2,0.1,0.5,0,0.6
	c0.3,0.1,0.1-0.4,0.5-0.2l0,0.2c1,0,2.1,0,3.2-0.1c0.5,0.1,1-0.2,1.4-0.4l0.1,0.3c0.4,0.3,0.4-0.2,0.6-0.3l0.3,0.3l0.1-0.3
	c0.4-0.2,1-0.1,0.9,0.4c0.2-0.1,0.3-0.2,0.1-0.3c0.4,0.3,1.6,0.3,2.4,0.1c-0.4-0.1-0.3-0.2-0.4-0.5c0.1-0.5,0.2,0.1,0.5-0.2
	c0,0.2,0.4,0.3,0,0.5c1,0.6,2.5,0.1,3.8,0.2c0.3-0.1,0.2-0.1,0.3-0.3c0.8,0.5,1.8,0,2.7,0.2c-0.2-0.2,0.1-0.7,0.6-0.8
	c0.5-0.4,0.2,0.5,0.7,0.8c0.2-0.2,0.7-0.2,0.9-0.2l0,0.1c0.1-0.1,0.3-0.1,0.4-0.2v0.4c0.3-0.1,0.5-0.2,0.7-0.3
	c0.2,0.1,0.5,0.2,0.8,0.2c0.3,0.1,0.6,0.2,1.1,0.3c-0.4-0.1,0-0.3,0.2-0.4l0.4,0.4c0.5,0.2,1.1-0.1,1.6-0.4L198,11
	c0.4,0.3,0.4-0.2,0.6-0.3l0.3,0.3l0.1-0.3c0.4-0.2,1-0.1,0.9,0.4c0.2-0.1,0.3-0.2,0.1-0.3c0.4,0.3,1.6,0.3,2.4,0.1
	c-0.4-0.1-0.3-0.2-0.4-0.5c0.1-0.5,0.2,0.1,0.5-0.2c0,0.2,0.4,0.3,0,0.5c1,0.6,2.5,0.1,3.8,0.2c0.3-0.1,0.2-0.1,0.3-0.3
	c0.8,0.5,1.8,0,2.7,0.2c-0.2-0.2,0.1-0.7,0.6-0.8c0.5-0.4,0.2,0.5,0.7,0.8c0.2-0.2,0.7-0.2,0.9-0.2l0,0.1c0.3-0.2,0.8-0.3,1.1-0.1
	l-0.1,0c0.1,0,0.3,0.1,0.5,0.2v0.2c0.1,0,0.2-0.1,0.3-0.1c0.1,0,0.1,0,0.2,0c0.1-0.2,0.3-0.2,0.6-0.3c0.3,0.3,0.8,0.3,1.5,0.5
	c-0.4-0.1,0-0.3,0.2-0.4l0.4,0.4c0.5,0.2,1.1-0.1,1.6-0.4l0.1,0.3c0.4,0.3,0.4-0.2,0.6-0.3l0.3,0.3l0.1-0.3c0.4-0.2,1-0.1,0.9,0.4
	c0.2-0.1,0.3-0.2,0.1-0.3c0.4,0.3,1.6,0.3,2.4,0.1c-0.4-0.1-0.3-0.2-0.4-0.5c0.1-0.5,0.2,0.1,0.5-0.2c0,0.2,0.4,0.3,0,0.5
	c1,0.6,2.5,0.1,3.8,0.2c0.3-0.1,0.2-0.1,0.3-0.3c0.8,0.5,1.8,0,2.7,0.2c-0.2-0.2,0.1-0.7,0.6-0.8c0.5-0.4,0.2,0.5,0.7,0.8
	c0.1,0,0.1-0.1,0.2-0.1v0.2c0.2-0.1,0.5-0.2,0.7-0.3c0,0,0,0,0,0l0,0.1c0.1-0.1,0.2-0.1,0.3-0.2c0.3,0.3,0.8,0.3,1.6,0.6
	c-0.2-0.1-0.2-0.2,0-0.3c0,0,0.1,0,0.1,0c0,0,0-0.1,0.1-0.1c0,0,0,0,0,0l0.4,0.4c0.5,0.2,1.1-0.1,1.6-0.4l0.1,0.3
	c0.4,0.3,0.4-0.2,0.6-0.3l0.3,0.3l0.1-0.3c0.4-0.2,1-0.1,0.9,0.4c0.2-0.1,0.3-0.2,0.1-0.3c0.4,0.3,1.6,0.3,2.4,0.1
	c-0.4-0.1-0.3-0.2-0.4-0.5c0.1-0.5,0.2,0.1,0.5-0.2c0,0.2,0.4,0.3,0,0.5c1,0.6,2.5,0.1,3.8,0.2c0,0,0.1,0,0.1,0v0
	c0.2,0,0.3-0.1,0.4-0.2c0.3,0.1,0.7,0.1,1.1,0.1c0.3,0.1,0.6,0.1,1,0.3c-0.3-0.1-0.1-0.2,0-0.3c0.1,0,0.2,0,0.3,0l0.3,0.3
	c0.5,0.2,1.1-0.1,1.6-0.4l0.1,0.3c0.4,0.3,0.4-0.2,0.6-0.3l0.3,0.3l0.1-0.3c0.4-0.2,1-0.1,0.9,0.4c0.2-0.1,0.3-0.2,0.1-0.3
	c0,0,0,0,0,0c0.5,0.2,1.6,0.2,2.3,0.1c-0.4-0.1-0.3-0.2-0.4-0.5c0.1-0.5,0.2,0.1,0.5-0.2c0,0.2,0.4,0.3,0,0.5c1,0.6,2.5,0.1,3.8,0.2
	c0,0,0.1,0,0.1,0v0c0.2,0,0.3-0.1,0.4-0.2c0.3,0.1,0.7,0.1,1.1,0.1c0.3,0.1,0.6,0.1,1,0.3c-0.3-0.1-0.1-0.2,0-0.3c0.1,0,0.2,0,0.3,0
	l0.3,0.3c0.5,0.2,1.1-0.1,1.6-0.4l0.1,0.3c0.4,0.3,0.4-0.2,0.6-0.3l0.3,0.3l0.1-0.3c0.4-0.2,1-0.1,0.9,0.4c0.2-0.1,0.3-0.2,0.1-0.3
	c0,0,0,0,0,0c0.5,0.2,1.6,0.2,2.3,0.1c-0.4-0.1-0.3-0.2-0.4-0.5c0.1-0.5,0.2,0.1,0.5-0.2c0,0.2,0.4,0.3,0,0.5c1,0.6,2.5,0.1,3.8,0.2
	c0,0,0.1,0,0.1,0v0c0.2,0,0.3-0.1,0.4-0.2c0.3,0.1,0.7,0.1,1.1,0.1c0.3,0.1,0.6,0.1,1,0.3c-0.3-0.1-0.1-0.2,0-0.3c0.1,0,0.2,0,0.3,0
	l0.3,0.3c0.5,0.2,1.1-0.1,1.6-0.4l0.1,0.3c0.4,0.3,0.4-0.2,0.6-0.3L276,11l0.1-0.3c0.4-0.2,1-0.1,0.9,0.4c0.2-0.1,0.3-0.2,0.1-0.3
	c0,0,0,0,0,0c0.5,0.2,1.6,0.2,2.3,0.1c-0.4-0.1-0.3-0.2-0.4-0.5c0.1-0.5,0.2,0.1,0.5-0.2c0,0.2,0.4,0.3,0,0.5c1,0.6,2.5,0.1,3.8,0.2
	c0,0,0.1,0,0.1,0v0c0.2,0,0.3-0.1,0.4-0.2c0.3,0.1,0.7,0.1,1.1,0.1c0.3,0.1,0.6,0.1,1,0.3c-0.3-0.1-0.1-0.2,0-0.3c0.1,0,0.2,0,0.3,0
	l0.3,0.3c0.5,0.2,1.1-0.1,1.6-0.4l0.1,0.3c0.4,0.3,0.4-0.2,0.6-0.3l0.3,0.3l0.1-0.3c0.4-0.2,1-0.1,0.9,0.4c0.2-0.1,0.3-0.2,0.1-0.3
	c0,0,0,0,0,0c0.5,0.2,1.6,0.2,2.3,0.1c-0.4-0.1-0.3-0.2-0.4-0.5c0.1-0.5,0.2,0.1,0.5-0.2c0,0.2,0.4,0.3,0,0.5c1,0.6,2.5,0.1,3.8,0.2
	c0.3-0.1,0.2-0.1,0.3-0.3c0.3,0.2,0.6,0.2,0.9,0.2v0.1c0,0,0.1,0,0.1,0c0.4,0,0.8-0.1,1.2-0.1c0.3,0.1,0.7,0.2,1.2,0.3
	c-0.4-0.1,0-0.3,0.2-0.4l0.4,0.4c0.5,0.2,1.1-0.1,1.6-0.4l0.1,0.3c0.4,0.3,0.4-0.2,0.6-0.3l0.3,0.3l0-0.2c0.1,0,0.1,0,0.2,0
	c0-0.1,0.1-0.1,0.2-0.2c0.3,0,0.7,0.1,0.6,0.4c0.2-0.1,0.3-0.2,0.1-0.3c0.4,0.3,1.6,0.3,2.4,0.1c-0.4-0.1-0.3-0.2-0.4-0.5
	c0.1-0.5,0.2,0.1,0.5-0.2c0,0.2,0.4,0.3,0,0.5c1,0.6,2.5,0.1,3.8,0.2c0.2-0.1,0.2-0.1,0.3-0.2c0.2,0.1,0.3,0.1,0.3,0
	c0.8,0.3,1.7-0.1,2.5,0.1c-0.1-0.1-0.1-0.2,0-0.3c0.1,0,0.3-0.1,0.3-0.1c-0.1,0-0.2,0-0.2-0.1c0.1-0.1,0.2-0.2,0.3-0.2
	c0.1,0,0.3,0,0.3-0.1c0,0,0,0,0,0l0.2,0.2c0,0.2,0.1,0.5,0.3,0.6c0.2-0.1,0.5-0.2,0.7-0.2c0.1,0.1,0.2,0.1,0.4,0.2l0.5-0.3
	c0.1,0,0.2,0,0.4,0.1l-0.1,0c0,0,0.1,0,0.1,0c0,0,0,0.1,0,0.1c0.1,0,0.2,0,0.3,0c0.2,0.1,0.4,0.1,0.5,0.1c0.1-0.4,0.9-0.1,1-0.5
	c0,0,0,0.1,0.1,0.1l0-0.3l0.2,0.1v-0.2l0.2,0c0.7,0.9,2.4,0.2,3.6,0.6c-0.1-0.5,2.7-0.1,3-0.3c-0.1,0.5,0.7-0.1,1,0.2l-0.2-0.5
	c0.7,0.3,1.2-0.8,1.6-0.2c0.4,0.1-0.1,0.4-0.3,0.4c0.6,0.5,1.5-0.4,1.9,0.1c0-0.2-0.1-0.5,0.4-0.7c0.4,0.2,1.2,0.5,1.1,0.6
	c0.3-0.1,0.4-0.3,0.8-0.1c0,0.1-0.2,0.1-0.3,0.2c0.6,0.1,1-0.1,1.5-0.3c0.3,0.4,1.3,0.2,1.9,0.4c0.4-0.5,1,0.2,1.1-0.4
	c0,0.1,0.1,0.1,0.1,0.2c0.2-0.2,0.4-0.6,0.7-0.6l-0.1,0.4c-0.1,0.5,0.9,0.1,0.9,0.4c-0.3-0.3,0.3,0,0.4-0.3l0.4-0.1
	c0.6-0.1,0.1-0.2,0.8-0.2c0.4,0,0.1,0.5,0,0.4c0.3,0.2,0.7,0.1,1,0c0,0-0.1-0.1-0.1-0.1l0.5,0c-0.1,0-0.3,0-0.4,0.1
	c0.2,0.1,0.6,0,0.8,0.1l-0.1,0.3c0.2,0,0.9-0.3,0.9-0.5c0.9,0.3,2.5,0.1,3.2-0.1c-0.1,0.1-0.1,0.2,0,0.1c0.3-0.1,0.7-0.3,0.7-0.1
	c0.3-0.1,0.3,0.2,0.8,0.3c0,0.1,0.1-0.2,0-0.2c0.8,0.4,1.9-0.3,2.9,0l1.9-0.3c-0.1,0.1-0.1,0.3-0.3,0.4c0.4,0,0.9,0,1.2-0.2
	c0,0,0,0-0.1,0c-0.4-0.3,0.3-0.6,0.7-0.5l0,0.1c0.5,0,0.6-0.2,1.1-0.2c0.3,0.2-0.3,0.1-0.2,0.3c0.1,0.5,1.2,0.3,1.3,0.4
	c0.1-0.1,0.3-0.2,0.3-0.3c0.4-0.1,0.2,0.3,0.5,0.3l1.2-0.9c-0.1,0.1,0.3,0.4,0,0.6c0.9,0,1.4-0.6,2-0.9c0.3,0.1,1.1-0.1,1.4-0.1
	c0.1,0.3-0.2,0-0.3,0.2l0.4,0.3c-0.6,0,0,0.5-0.3,0.7c0.5-0.2,1.6,0.1,2.2,0.2c-0.4-0.6,1-0.2,1-0.8c0.8-0.1,0.4,0.4,0.7,0.5
	c0.9-0.2,1.7,0,2.4,0c0,0,0,0.1,0,0.1c0.7-0.1,1.8,0.1,2.6-0.4c0,0.1,0,0.2-0.2,0.3c0.7,0.2,0.2-0.6,1.1-0.3l-0.2,0.2
	c0.6-0.2,1,0.3,1.7-0.1c0,0.1-0.1,0.2-0.2,0.2c0.6-0.1,1.2,0,1.7-0.3c0.1,0.2,0,0.3-0.3,0.4c0.5,0.2,0.7-0.4,1.2-0.2
	c0.1,0,0.4,0.3,0.3,0.3c0.3-0.2,1.1-0.2,1.4-0.2c0.1,0.2,0.3,0.2,0.5,0.4c2.8,0.1,3.8,0.4,6.7,0.1c0.4,0.5,1.1,0,1.3,0.4
	c0.6,0.1,0.6,0.1,1.5,0l0,0.1c0.4-0.1,0.5,0.2,0.9,0.1l0-0.1c0.5-0.3,0.8,0.6,1.1,0.1l0.3,0.3c0.5-0.5,0.6,0.2,1.2-0.2l-0.1,0.1
	c0.6,0.3,1.5-0.5,1.7,0c0.6,0,1.3-0.1,1.4-0.5c0.1,0.2,0,0.4-0.1,0.5c2.2-0.1,4.6,0.2,6.6-0.2c0.1,0.1-0.1,0.1-0.1,0.2
	c1.3-0.4,2.4,0.6,3.4-0.2l0.4-0.3c0.3,0.2,0.2,0.4,0.4,0.6c0.3-0.2,1.1,0,1.3-0.3c0.1,0.2-0.1,0.2-0.1,0.3c0.5,0.1,1.3-0.4,1.8-0.2
	L406,11c2.6,0.8,6,1.6,8.4,1c0.6-0.1,0.1,0.5,0.4,0.5c2.1-0.4,4.1,0.4,6.1,0.3c0.4,0,0.5-0.4,1.2-0.3c0.7,0,0.8-0.2,0.7-0.5
	C422.8,12,423.1,11.7,422.9,11.6"/>
</svg>
