<?xml version="1.0" encoding="utf-8"?>
<!-- Generator: Adobe Illustrator 18.1.1, SVG Export Plug-In . SVG Version: 6.00 Build 0)  -->
<svg version="1.1" id="Layer_1" xmlns="http://www.w3.org/2000/svg" xmlns:xlink="http://www.w3.org/1999/xlink" x="0px" y="0px"
	 viewBox="137.2 -5.5 325.8 27.5" enable-background="new 137.2 -5.5 325.8 27.5" xml:space="preserve">
<path fill="#D92E27" d="M463.4,11.9c-0.3,0-0.7-0.1-0.9-0.2c-0.4-0.2-0.8-0.2-1.3-0.3c-2.9-0.3-5.7-0.8-8.7-1.4
	c-1.6,0-2.8-0.1-4.2-0.4c-1.3-0.2-2.7-0.2-4.8-0.4c-0.4,0-2.6-0.1-3-0.2c-0.4,0-1.5,0-1.9-0.1c-2.7-0.3-4.8-0.4-7.8-0.3
	c0.3,0.1-1.4,0.1-1.8,0.2L429,8.7l-0.6,0.1c-0.5,0-0.5-0.1-0.8-0.2c-2.4-0.1-2.6,0.2-4.9,0l-2.8-0.2c-2.4-0.1-5.3-0.4-7.8-0.5
	c-6.4-0.6-7.5-0.3-13.9-0.5c-6.4-0.1-12.8,0.1-19.3,0.1c-1,0.6-2.4,0.3-3.6,0.8l0.1-0.2c-1,0.3-1.3-0.1-2.5-0.3
	c0,0.2-0.5,0.1-0.3,0.4c-0.5,0.3-0.8-0.5-1.4-0.4c0-0.1,0,0.2-0.1,0.1c-1.7,0.4,0.3-0.2-1.8-0.6c-3,0.1-6,0.5-8.8,0.3
	c0.2,0,0.3,0.3,0,0.3c-0.3-0.6-1,0.2-1.5-0.1c0-0.1,0.3-0.2,0.4-0.2c-1.3-0.2-2.4,0.1-3.6-0.1c-1.1,0.2-2.5-0.3-3.2,0.1
	c0.2-0.2-0.5-0.2-0.8-0.3c-0.8,0.7-4.8-0.2-5.8,0.2l0-0.1c-1,0-2.1,0-3.2,0c-1-0.1-1.9-0.2-2.9,0c0,0-0.1,0-0.1,0
	c-0.1,0-0.3,0-0.4,0c0,0,0,0,0,0c-0.1,0-0.2,0-0.3,0.1c-0.4,0-0.7,0-1.1,0c-0.7,0-1.5-0.2-2.2-0.1c-0.1,0.1-0.4,0.1-0.4,0.3
	c-0.1,0-0.2,0-0.3,0c-1.3-0.3-3.1,0.2-4.4-0.1c0.5,0.6-0.8,0.3-1.3,0.5c-0.3,0-0.3-0.2-0.2-0.4l-1.4,0c-1.4-0.1-3-0.4-4.5-0.2
	c-0.4,0.1-0.1,0.2-0.4,0.3c-0.5,0,0-0.2-0.2-0.3c-1,0.3-2.3-0.1-3.5,0c-0.1,0.1-0.5,0.1-0.4,0.3c-1.4-0.5-3.3,0.2-4.7-0.2
	c0.5,0.6-0.7,0.4-1.3,0.5V7.6c-1.5-0.1-3.2-0.5-4.8-0.2c-0.3,0.1-0.1,0.2-0.3,0.3c-0.1,0-0.2,0-0.3,0c-0.1-0.1,0.2-0.2,0-0.3
	c-1,0.3-2.3-0.1-3.5,0c-0.1,0.1-0.5,0.1-0.4,0.3c-1.4-0.5-3.3,0.2-4.7-0.2c0.5,0.6-0.7,0.4-1.3,0.5V7.6c-1.5-0.1-3.2-0.5-4.8-0.2
	c-0.3,0.1-0.1,0.2-0.3,0.3c-0.1,0-0.2,0-0.3,0c-0.1-0.1,0.2-0.2,0-0.3c-1,0.3-2.3-0.1-3.5,0c-0.1,0.1-0.5,0.1-0.4,0.3
	c-1.4-0.5-3.3,0.2-4.7-0.2c0.5,0.6-0.7,0.4-1.3,0.5V7.6c-1.5-0.1-3.2-0.5-4.8-0.2c-0.3,0.1-0.1,0.2-0.3,0.3c-0.1,0-0.2,0-0.3,0
	c-0.1-0.1,0.2-0.2,0-0.3c-1,0.3-2.3-0.1-3.5,0c-0.1,0.1-0.5,0.1-0.4,0.3c-1.4-0.5-3.3,0.2-4.7-0.2c0.5,0.6-0.7,0.4-1.3,0.5V7.6
	c-1.5-0.1-3.2-0.5-4.8-0.2c-0.3,0.1-0.1,0.2-0.3,0.3c-0.1,0-0.2,0-0.3,0c-0.1-0.1,0.2-0.2,0-0.3c-1,0.3-2.3-0.1-3.5,0
	c-0.1,0.1-0.5,0.1-0.4,0.3c-1.4-0.5-3.3,0.2-4.7-0.2c0.5,0.6-0.8,0.3-1.3,0.5c-0.3,0-0.3-0.2-0.2-0.4l-2.9,0
	c-0.6,0.1-0.7,0.4-1.4,0.3c-0.1-0.1-0.3-0.2-0.4-0.2V7.6c-1.5-0.1-3.2-0.5-4.8-0.2c-0.4,0.1-0.1,0.2-0.4,0.3c-0.5,0,0-0.2-0.2-0.3
	c-1,0.3-2.3-0.1-3.5,0c-0.1,0.1-0.5,0.1-0.4,0.3c-1.4-0.5-3.3,0.2-4.7-0.2c0.5,0.6-0.8,0.3-1.3,0.5c-0.3,0-0.3-0.2-0.2-0.4l-2.9,0
	c-0.6,0.1-0.7,0.4-1.4,0.3c-0.4-0.4-1.5,0-2.2-0.2c0.1,0.3-0.3,0.5-0.8,0.5V7.6c-1.5-0.1-3.2-0.5-4.8-0.2c-0.4,0.1-0.1,0.2-0.4,0.3
	c-0.5,0,0-0.2-0.2-0.3c-1,0.3-2.3-0.1-3.5,0c-0.1,0.1-0.5,0.1-0.4,0.3c-1.4-0.5-3.3,0.2-4.7-0.2c0.5,0.6-0.8,0.3-1.3,0.5
	c-0.3,0-0.3-0.2-0.2-0.4l-2.9,0c-0.6,0.1-0.7,0.4-1.4,0.3c-0.3-0.3-1.1-0.1-1.7-0.1V7.7c-1.5-0.1-3.2-0.5-4.8-0.2
	c-0.4,0.1-0.1,0.2-0.4,0.3c-0.5,0,0-0.2-0.2-0.3c-1,0.3-2.3-0.1-3.5,0c-0.1,0.1-0.5,0.1-0.4,0.3c-1.4-0.5-3.3,0.2-4.7-0.2
	c0.5,0.6-0.8,0.3-1.3,0.5c-0.3,0-0.3-0.2-0.2-0.4l-2.9,0c-0.6,0.1-0.7,0.4-1.4,0.3c-0.4-0.4-1.5,0-2.2-0.2c0,0,0,0,0,0.1
	c-0.4,0-0.8,0-1.2,0l0-0.1c-0.5,0.1-1.1,0.1-1.7,0.1v0.1c-0.4,0-0.8,0.1-1.2,0.2l-0.2-0.3c-2.6,0.3-5.2,0-7.8,0.5
	c-0.7-0.2-1.8-0.3-2.5-0.3c-0.9,0.3-1.3,0.2-1.9,0.6c-0.3,0-0.6-0.2-0.7-0.3c-1.2-0.1-2.3-0.5-3.2,0l0-0.3c-0.9,0.3-2.3,0.6-3.3,0.3
	c-0.3,0.2-1.3,0.3-0.9,0.6c-0.4,0.1-0.3-0.4-0.7-0.2l0.4-0.4c-2.3-0.1-4.3,0.1-6.6,0.3c-0.7-0.4-2.2,0.1-3.5-0.2
	c-0.7,0.2-2.1-0.4-2.6,0.2c0,0,0.1-0.3,0-0.5c-0.3-0.4-1.9-0.6-3.7-0.4c-0.8-0.1-0.7,0.4-1.3,0.5l0,0.9c0,0-0.1,0-0.1,0.4
	c0,0.3,0.2,0.3,0.2,0.3l0.2,0.1l0.2,0.1c0.2,0,0.3,0.1,0.6,0.1c0.9,0,1.6,0.3,2.5,0.4c0.8-0.1,1.1,0.1,1.7-0.1c0.7,0,0,0.5,0.7,0.3
	c0.5,0.2,1.1-0.2,1.9-0.2c1,0.1,1.6,0.1,2.6,0c-0.3,0-0.4,0.3-0.1,0.5c0.5-0.3,1.3-0.5,2.2-0.4c0-0.3-0.3-0.3-0.2-0.6
	c0.1-0.1,0.3-0.2,0.6-0.2c0.1,0.3,0.1,0.8,0.9,0.8c-0.7,0.3-1.9-0.1-1.5,0.4c-0.3,0.4-1.2,0.5-1.5,0.3c-0.7,0.4,0.5,0,0.4,0.5
	c0.6,0,0.9-0.3,1.9-0.3c0-0.2,0.5-0.1,0.9-0.3c0.9-0.5,0.3,0.1,0.5,0.2l-0.4,0.1c0.6,0.1,0.8-0.1,1.4-0.1c0.2,0.6-1,0.1-1.2,0.4
	l0.4,0.4c0.9,0.1,0.2-0.5,1.2-0.3l-0.1,0.2l0.6-0.1c0-0.2-0.1-0.5-0.6-0.5c0.3-0.6,0.5-0.1,1.3-0.2c0.3-0.3-0.3,0-0.4-0.3
	c-0.1-0.3,0.5-0.3,0.9-0.4c0.7,0,0.4,0.3,0.6,0.5c-0.1,0.1-0.6,0.1-0.6-0.1c-0.8,0.3,0.4,0.7-0.2,0.9c0.8,0.2,0.6-0.4,1.2-0.3
	c0.5-0.3,0.2-0.2,0-0.4c1.1-0.9,0.3,0.6,1.4,0.4c-0.2-0.5,1-0.4,0.2-1c0.3-0.1,0.6-0.2,0.8-0.2c-0.3,0.4,0.9,0,0.4,0.3l0.4,0
	l-0.6,0.4c0.4,0.3,1.1,0.5,1.4,0.7c0.6-0.2-0.2-0.4,0.5-0.5c-0.2,0.2,0.2,0.4,0.5,0.4c-0.6-0.1,0-0.5,0.4-0.6c0.6,0,1,0.3,0.9,0.4
	l-0.5,0.3c0.4-0.3,0.2,0.1,0.6,0c0.1-0.2,0.4-0.5,0.5-0.8c0.4-0.1,0.6,0.2,0.7,0.1l-0.6,0.2c0.8-0.1,0.2,0.6,0.9,0.4l0.2-0.3
	c0.2,0,0.2,0.2,0.1,0.3c0.1-0.2,0.6-0.2,0.8-0.2l0.1,0.2c0.3-0.1,0.7-0.6,1.1-0.2c-0.3-0.5-0.4,0-1-0.2c-0.3-0.3,0.5-0.3,0.7-0.4
	c0,0.5,0.8,0,1.2,0.1c0.2,0.2,0.4,0.3,0.6,0.4l0.2-0.3c0.1,0.6,0.8-0.1,1.2,0.1c-0.2,0.2-0.2,0.4,0.1,0.5c-0.4-0.5,0.7-0.6,0.6-0.9
	c0.8,0.2-0.2,0.6,0.1,0.9c0.4-0.4,0.9,0.2,1.1-0.2c-0.6-0.1,0.1-0.3,0.2-0.5c0.7,0-0.1,0.2,0.4,0.4c0.3-0.1,0.7-0.4,0.2-0.6
	c0.4,0.1,0.9-0.4,1.4-0.1c0.2,0.3-0.9,0.1-0.6,0.3c1,0,0.5-0.7,1.4-0.8l0.4-0.3l0.4-0.1c0.6,0.5-1.2,0.9-0.7,1.3l0.4-0.2
	c-0.1,0.1-0.2,0.4-0.1,0.6c0.1-0.4,1-0.1,1.1-0.2c0.1-0.3-0.4,0.1-0.3-0.2c0.5-0.1,0.7-0.6,1.4-0.4c-0.4,0.2,0.2,0.4,0,0.6
	c0.4,0.1,0.1-0.4,0.6-0.2l-0.1,0.2c1.1,0,2.5,0,3.7-0.1c0.5,0.1,1.2-0.2,1.7-0.4l0.1,0.3c0.5,0.2,0.5-0.2,0.7-0.3l0.3,0.2l0.1-0.2
	c0.5-0.1,1.2-0.1,1.1,0.3c0.2-0.1,0.4-0.2,0.1-0.3c0.5,0.2,1.8,0.2,2.7,0.1c-0.4-0.1-0.4-0.2-0.4-0.5c0.1-0.4,0.2,0.1,0.6-0.2
	c0,0.2,0.4,0.3,0,0.4c1.2,0.5,2.8,0.1,4.3,0.2c0.3-0.1,0.2-0.1,0.4-0.2c0.9,0.4,2.1,0,3.1,0.2c-0.2-0.2,0.1-0.7,0.7-0.7
	c0.6-0.3,0.2,0.5,0.8,0.7c0.3-0.2,0.8-0.2,1-0.2l0,0.1c0.1-0.1,0.3-0.1,0.5-0.2v0.3c0.3-0.1,0.6-0.2,0.8-0.3
	c0.3,0.1,0.6,0.2,0.9,0.2c0.3,0.1,0.7,0.1,1.2,0.3c-0.4-0.1,0-0.3,0.2-0.4l0.5,0.4c0.6,0.2,1.3-0.1,1.8-0.3l0.1,0.3
	c0.5,0.2,0.5-0.2,0.7-0.3l0.3,0.2l0.1-0.2c0.5-0.1,1.2-0.1,1.1,0.3c0.2-0.1,0.4-0.2,0.1-0.3c0.5,0.2,1.8,0.2,2.7,0.1
	c-0.4-0.1-0.4-0.2-0.4-0.5c0.1-0.4,0.2,0.1,0.6-0.2c0,0.2,0.4,0.3,0,0.4c1.2,0.5,2.8,0.1,4.3,0.2c0.3-0.1,0.2-0.1,0.4-0.2
	c0.9,0.4,2.1,0,3.1,0.2c-0.2-0.2,0.1-0.7,0.7-0.7c0.6-0.3,0.2,0.5,0.8,0.7c0.3-0.2,0.8-0.2,1-0.2l0,0.1c0.3-0.2,0.9-0.3,1.3-0.1
	l-0.1,0c0.2,0,0.4,0.1,0.5,0.1v0.1c0.1,0,0.2-0.1,0.3-0.1c0.1,0,0.2,0,0.2,0c0.1-0.2,0.4-0.2,0.7-0.2c0.3,0.2,0.9,0.3,1.8,0.5
	c-0.4-0.1,0-0.3,0.2-0.4l0.5,0.4c0.6,0.2,1.3-0.1,1.8-0.3l0.1,0.3c0.5,0.2,0.5-0.2,0.7-0.3l0.3,0.2l0.1-0.2c0.5-0.1,1.2-0.1,1.1,0.3
	c0.2-0.1,0.4-0.2,0.1-0.3c0.5,0.2,1.8,0.2,2.7,0.1c-0.4-0.1-0.4-0.2-0.4-0.5c0.1-0.4,0.2,0.1,0.6-0.2c0,0.2,0.4,0.3,0,0.4
	c1.2,0.5,2.8,0.1,4.3,0.2c0.3-0.1,0.2-0.1,0.4-0.2c0.9,0.4,2.1,0,3.1,0.2c-0.2-0.2,0.1-0.7,0.7-0.7c0.6-0.3,0.2,0.5,0.8,0.7
	c0.1,0,0.1-0.1,0.2-0.1v0.2c0.3-0.1,0.5-0.2,0.8-0.2c0,0,0,0,0,0l0,0.1c0.1-0.1,0.2-0.1,0.4-0.1c0.3,0.3,0.9,0.3,1.8,0.5
	c-0.3-0.1-0.2-0.2,0-0.3c0,0,0.1,0,0.1,0c0,0,0-0.1,0.1-0.1c0,0,0,0,0,0l0.5,0.4c0.6,0.2,1.3-0.1,1.8-0.3l0.1,0.3
	c0.5,0.2,0.5-0.2,0.7-0.3l0.3,0.2l0.1-0.2c0.5-0.1,1.2-0.1,1.1,0.3c0.2-0.1,0.4-0.2,0.1-0.3c0.5,0.2,1.8,0.2,2.7,0.1
	c-0.4-0.1-0.4-0.2-0.4-0.5c0.1-0.4,0.2,0.1,0.6-0.2c0,0.2,0.4,0.3,0,0.4c1.2,0.5,2.8,0.1,4.3,0.2c0,0,0.1,0,0.1,0v0
	c0.2,0,0.3-0.1,0.5-0.1c0.4,0.1,0.8,0.1,1.2,0.1c0.3,0.1,0.7,0.1,1.2,0.2c-0.3-0.1-0.2-0.2,0-0.3c0.1,0,0.2,0,0.3,0l0.3,0.3
	c0.6,0.2,1.3-0.1,1.8-0.3l0.1,0.3c0.5,0.2,0.5-0.2,0.7-0.3l0.3,0.2l0.1-0.2c0.5-0.1,1.2-0.1,1.1,0.3c0.2-0.1,0.3-0.1,0.2-0.2
	c0,0,0,0,0,0c0.5,0.2,1.8,0.2,2.7,0.1c-0.4-0.1-0.4-0.2-0.4-0.5c0.1-0.4,0.2,0.1,0.6-0.2c0,0.2,0.4,0.3,0,0.4
	c1.2,0.5,2.8,0.1,4.3,0.2c0,0,0.1,0,0.1,0v0c0.2,0,0.3-0.1,0.5-0.1c0.4,0.1,0.8,0.1,1.2,0.1c0.3,0.1,0.7,0.1,1.2,0.2
	c-0.3-0.1-0.2-0.2,0-0.3c0.1,0,0.2,0,0.3,0l0.3,0.3c0.6,0.2,1.3-0.1,1.8-0.3l0.1,0.3c0.5,0.2,0.5-0.2,0.7-0.3l0.3,0.2l0.1-0.2
	c0.5-0.1,1.2-0.1,1.1,0.3c0.2-0.1,0.3-0.1,0.2-0.2c0,0,0,0,0,0c0.5,0.2,1.8,0.2,2.7,0.1c-0.4-0.1-0.4-0.2-0.4-0.5
	c0.1-0.4,0.2,0.1,0.6-0.2c0,0.2,0.4,0.3,0,0.4c1.2,0.5,2.8,0.1,4.3,0.2c0,0,0.1,0,0.1,0v0c0.2,0,0.3-0.1,0.5-0.1
	c0.4,0.1,0.8,0.1,1.2,0.1c0.3,0.1,0.7,0.1,1.2,0.2c-0.3-0.1-0.2-0.2,0-0.3c0.1,0,0.2,0,0.3,0l0.3,0.3c0.6,0.2,1.3-0.1,1.8-0.3
	l0.1,0.3c0.5,0.2,0.5-0.2,0.7-0.3l0.3,0.2l0.1-0.2c0.5-0.1,1.2-0.1,1.1,0.3c0.2-0.1,0.3-0.1,0.2-0.2c0,0,0,0,0,0
	c0.5,0.2,1.8,0.2,2.7,0.1c-0.4-0.1-0.4-0.2-0.4-0.5c0.1-0.4,0.2,0.1,0.6-0.2c0,0.2,0.4,0.3,0,0.4c1.2,0.5,2.8,0.1,4.3,0.2
	c0,0,0.1,0,0.1,0v0c0.2,0,0.3-0.1,0.5-0.1c0.4,0.1,0.8,0.1,1.2,0.1c0.3,0.1,0.7,0.1,1.2,0.2c-0.3-0.1-0.2-0.2,0-0.3
	c0.1,0,0.2,0,0.3,0l0.3,0.3c0.6,0.2,1.3-0.1,1.8-0.3l0.1,0.3c0.5,0.2,0.5-0.2,0.7-0.3l0.3,0.2l0.1-0.2c0.5-0.1,1.2-0.1,1.1,0.3
	c0.2-0.1,0.3-0.1,0.2-0.2c0,0,0,0,0,0c0.5,0.2,1.8,0.2,2.7,0.1c-0.4-0.1-0.4-0.2-0.4-0.5c0.1-0.4,0.2,0.1,0.6-0.2
	c0,0.2,0.4,0.3,0,0.4c1.2,0.5,2.8,0.1,4.3,0.2c0.3-0.1,0.2-0.1,0.4-0.2c0.3,0.1,0.7,0.2,1,0.2v0c0.1,0,0.1,0,0.2,0
	c0.5,0,1-0.1,1.4-0.1c0.3,0.1,0.8,0.2,1.4,0.3c-0.4-0.1,0-0.3,0.2-0.4l0.5,0.4c0.6,0.2,1.3-0.1,1.8-0.3l0.1,0.3
	c0.5,0.2,0.5-0.2,0.7-0.3l0.3,0.2l0.1-0.2c0.1,0,0.1,0,0.2,0c0-0.1,0.1-0.1,0.2-0.1c0.4,0,0.8,0.1,0.7,0.4c0.2-0.1,0.4-0.2,0.1-0.3
	c0.5,0.2,1.8,0.2,2.7,0.1c-0.4-0.1-0.4-0.2-0.4-0.5c0.1-0.4,0.2,0.1,0.6-0.2c0,0.2,0.4,0.3,0,0.4c1.2,0.5,2.8,0.1,4.3,0.2
	c0.2-0.1,0.2-0.1,0.3-0.2c0.2,0,0.3,0.1,0.4,0c0.9,0.2,1.9-0.1,2.8,0.1c-0.1-0.1-0.1-0.1-0.1-0.2c0.1,0,0.3-0.1,0.4-0.1
	c-0.1,0-0.2,0-0.3-0.1c0.1-0.1,0.2-0.2,0.3-0.2c0.2,0,0.3,0,0.4-0.1c0,0,0,0,0.1,0l0.3,0.2c0.1,0.2,0.1,0.4,0.4,0.5
	c0.2-0.1,0.6-0.2,0.8-0.2c0.1,0.1,0.2,0.1,0.4,0.2l0.6-0.3c0.1,0,0.3,0,0.4,0.1l-0.1,0c0,0,0.1,0,0.1,0c0,0,0,0.1,0,0.1
	c0.1,0,0.3,0,0.4,0c0.2,0.1,0.4,0.1,0.6,0.1c0.2-0.3,1-0.1,1.2-0.4c0,0,0,0.1,0.1,0.1l0-0.3l0.3,0.1v-0.1l0.2,0
	c0.8,0.8,2.8,0.2,4.1,0.6c-0.1-0.4,3.1-0.1,3.4-0.3c-0.1,0.5,0.8-0.1,1.1,0.2l-0.2-0.5c0.8,0.3,1.3-0.7,1.9-0.1
	c0.5,0.1-0.1,0.3-0.3,0.4c0.7,0.5,1.7-0.4,2.2,0.1c0.1-0.2-0.1-0.5,0.4-0.6c0.4,0.2,1.3,0.4,1.3,0.5c0.4-0.1,0.5-0.2,0.9-0.1
	c0,0.1-0.2,0.1-0.3,0.2c0.6,0.1,1.1-0.1,1.7-0.2c0.3,0.3,1.5,0.2,2.2,0.4c0.4-0.4,1.2,0.2,1.2-0.4c0,0.1,0.1,0.1,0.1,0.2
	c0.3-0.2,0.5-0.5,0.8-0.5l-0.1,0.4c-0.1,0.5,1,0.1,1.1,0.3c-0.3-0.3,0.4,0,0.4-0.3l0.4-0.1c0.7-0.1,0.1-0.2,0.9-0.2
	c0.5,0,0.1,0.4,0,0.4c0.4,0.2,0.8,0.1,1.2,0c0,0-0.1,0-0.1-0.1l0.5,0c-0.1,0-0.3,0-0.4,0.1c0.2,0.1,0.7,0,0.9,0.1l-0.1,0.3
	c0.3,0,1.1-0.3,1-0.4c1.1,0.3,2.9,0.1,3.7-0.1c-0.1,0.1-0.2,0.2,0,0.1c0.4-0.1,0.8-0.3,0.8-0.1c0.4-0.1,0.3,0.2,0.9,0.2
	c0,0,0.1-0.2,0-0.2c0.9,0.4,2.2-0.3,3.3,0l2.2-0.3c-0.1,0.1-0.1,0.2-0.3,0.3c0.5,0,1,0,1.4-0.2c0,0,0,0-0.1,0
	c-0.4-0.3,0.4-0.5,0.8-0.4l0,0.1c0.6,0,0.7-0.1,1.3-0.1c0.4,0.2-0.3,0.1-0.2,0.3c0.1,0.5,1.4,0.3,1.5,0.4c0.2-0.1,0.4-0.2,0.4-0.3
	c0.5-0.1,0.2,0.3,0.5,0.3l1.4-0.8c-0.1,0.1,0.4,0.4,0,0.5c1,0,1.6-0.6,2.3-0.8c0.3,0.1,1.3-0.1,1.6-0.1c0.1,0.2-0.3,0-0.4,0.2
	l0.5,0.3c-0.7,0,0,0.4-0.3,0.6c0.6-0.1,1.8,0.1,2.6,0.2c-0.5-0.5,1.1-0.2,1.1-0.7c0.9-0.1,0.4,0.4,0.8,0.5c1-0.2,1.9,0,2.8,0
	c0,0,0,0.1,0,0.1c0.8-0.1,2.1,0.1,3-0.3c-0.1,0.1,0,0.2-0.2,0.3c0.8,0.2,0.2-0.6,1.2-0.3l-0.3,0.2c0.7-0.2,1.2,0.2,1.9-0.1
	c0,0.1-0.2,0.2-0.3,0.2c0.7-0.1,1.4,0,2-0.3c0.1,0.1,0,0.3-0.3,0.4c0.6,0.2,0.8-0.4,1.3-0.2c0.2,0,0.5,0.2,0.3,0.2
	c0.3-0.2,1.2-0.2,1.6-0.2c0.1,0.2,0.3,0.2,0.6,0.4c3.2,0.1,4.4,0.4,7.7,0.1c0.4,0.5,1.2,0,1.5,0.3c0.7,0.1,0.7,0.1,1.7,0l0,0.1
	c0.4-0.1,0.6,0.2,1.1,0.1l0-0.1c0.5-0.2,1,0.6,1.3,0.1l0.3,0.3c0.6-0.4,0.7,0.2,1.4-0.2l-0.1,0.1c0.7,0.2,1.7-0.4,1.9,0
	c0.7,0,1.5-0.1,1.7-0.4c0.1,0.1,0,0.3-0.1,0.5c2.5-0.1,5.3,0.2,7.6-0.2c0.1,0.1-0.1,0.1-0.1,0.2c1.5-0.3,2.7,0.6,3.9-0.2l0.5-0.3
	c0.3,0.1,0.2,0.4,0.4,0.5c0.3-0.2,1.3,0,1.5-0.3c0.1,0.1-0.1,0.2-0.1,0.3c0.6,0.1,1.5-0.3,2.1-0.2l-0.2,0.1c3,0.7,6.9,1.4,9.7,0.9
	c0.7-0.1,0.2,0.4,0.5,0.4c2.4-0.3,4.7,0.4,7,0.3c0.5,0,0.5-0.4,1.4-0.2c0.8,0,0.9-0.2,0.8-0.4C463.3,12.2,463.6,12,463.4,11.9"/>
</svg>
